<svg xmlns="http://www.w3.org/2000/svg" xmlns:xlink="http://www.w3.org/1999/xlink" viewBox="0 0 48 48" version="1.1" width="100" height="100" style="fill: rgb(0, 0, 0);">
<g id="surface1">
<path style=" fill:#9FA8DA;" d="M 8 35 C 8 37.210938 9.789063 39 12 39 L 36 39 C 38.210938 39 40 37.210938 40 35 L 40 18 L 8 18 Z "/>
<path style="fill:none;stroke-width:2;stroke-linecap:butt;stroke-linejoin:miter;stroke:#5C6BC0;stroke-opacity:1;stroke-miterlimit:4;" d="M 45 20 C 42 20 41 22 41 24 C 41 24 41 25 40 25 "/>
<path style="fill:none;stroke-width:2;stroke-linecap:butt;stroke-linejoin:miter;stroke:#5C6BC0;stroke-opacity:1;stroke-miterlimit:4;" d="M 3 20 C 6 20 7 22 7 24 C 7 24 7 25 8 25 "/>
<path style="fill:none;stroke-width:2;stroke-linecap:butt;stroke-linejoin:miter;stroke:#5C6BC0;stroke-opacity:1;stroke-miterlimit:4;" d="M 29 17 L 29 14 C 29 12 28 10 25 10 L 23 10 C 20 10 19 12 19 14 L 19 17 "/>
<path style=" fill:#5C6BC0;" d="M 40 18 L 40 17 C 40 15.894531 39.105469 15 38 15 L 10 15 C 8.894531 15 8 15.894531 8 17 L 8 18 Z "/>
</g>
</svg>