<svg xmlns="http://www.w3.org/2000/svg" xmlns:xlink="http://www.w3.org/1999/xlink" viewBox="0 0 48 48" version="1.1" width="100" height="100" style="fill: rgb(0, 0, 0);">
<g id="surface1">
<path style="fill:none;stroke-width:2;stroke-linecap:butt;stroke-linejoin:miter;stroke:#BF360C;stroke-opacity:1;stroke-miterlimit:10;" d="M 31 29 C 40.9375 29 44 23.761719 44 21 C 44 18.238281 41.761719 16 39 16 C 36.238281 16 34 18.238281 34 21 "/>
<path style=" fill:#FF3D00;" d="M 7 7 C 7 20.746094 14 36 14 36 L 30 36 C 30 36 37 20.746094 37 7 Z "/>
<path style=" fill:#CFD8DC;" d="M 4 35 L 4 36 C 4 36 8.347656 41 12 41 L 32 41 C 35.652344 41 40 36 40 36 L 40 35 Z "/>
<path style=" fill:#BF360C;" d="M 31.253906 33 L 12.746094 33 C 13.070313 33.824219 13.351563 34.5 13.5625 35 L 30.4375 35 C 30.648438 34.5 30.929688 33.824219 31.253906 33 Z "/>
</g>
</svg>