<svg xmlns="http://www.w3.org/2000/svg" xmlns:xlink="http://www.w3.org/1999/xlink" viewBox="0 0 48 48" version="1.1" width="100" height="100" style="fill: rgb(0, 0, 0);">
<g id="surface1">
<path style=" fill:#BBDEFB;" d="M 39 45 L 9 45 C 9 45 9 7 9 6 C 9 5 10 3 12 3 C 14 3 35 3 36 3 C 37 3 39 4 39 6 C 39 8 39 45 39 45 Z "/>
<path style=" fill:#64B5F6;" d="M 9 18 L 39 18 L 39 20 L 9 20 Z "/>
<path style=" fill:#3F51B5;" d="M 14 8 L 16 8 L 16 15 L 14 15 Z "/>
<path style=" fill:#3F51B5;" d="M 14 23 L 16 23 L 16 34 L 14 34 Z "/>
</g>
</svg>