<svg xmlns="http://www.w3.org/2000/svg" xmlns:xlink="http://www.w3.org/1999/xlink" viewBox="0 0 48 48" version="1.1" width="100" height="100" style="fill: rgb(0, 0, 0);">
<g id="surface1">
<path style="fill:none;stroke-width:2;stroke-linecap:square;stroke-linejoin:miter;stroke:#2196F3;stroke-opacity:1;stroke-miterlimit:4;" d="M 41.640625 10.449219 C 41.640625 10.449219 43.027344 7.789063 40.367188 6.402344 C 37.707031 5.011719 36.320313 7.671875 36.320313 7.671875 L 21.25 36.125 "/>
<path style=" fill:#2196F3;" d="M 11.917969 40.378906 C 15.996094 42.082031 20.679688 40.160156 22.382813 36.082031 L 7.621094 29.914063 C 5.917969 33.992188 7.839844 38.675781 11.917969 40.378906 Z "/>
<path style=" fill:#3F51B5;" d="M 7.621094 29.914063 C 6.984375 31.441406 9.769531 34.058594 13.847656 35.761719 C 17.921875 37.46875 21.746094 37.609375 22.382813 36.082031 C 23.023438 34.554688 20.234375 31.933594 16.15625 30.230469 C 12.082031 28.527344 8.257813 28.386719 7.621094 29.914063 Z "/>
</g>
</svg>