<svg xmlns="http://www.w3.org/2000/svg" xmlns:xlink="http://www.w3.org/1999/xlink" viewBox="0 0 48 48" version="1.1" width="100" height="100" style="fill: rgb(0, 0, 0);">
<g id="surface1">
<path style=" fill:#90A4AE;" d="M 35 40 L 13 40 L 11 12 L 37 12 Z "/>
<path style=" fill:#6D4C41;" d="M 21 20 L 8 19 L 8 22 L 21 21.1875 Z "/>
<path style=" fill:#ECEFF1;" d="M 28 22 L 20 22 L 19 16 L 29 16 Z "/>
<path style=" fill:#FF3D00;" d="M 40 17 L 8 17 L 8 12 C 8 7.855469 11.859375 4 16 4 L 32 4 C 36.144531 4 40 7.855469 40 12 Z "/>
<path style=" fill:#FF3D00;" d="M 39 43 L 9 43 C 9 43 9 42 9 41 C 9 40 10 40 10 40 L 38 40 C 38 40 39 40 39 41 C 39 42 39 43 39 43 Z "/>
<path style=" fill:#F5F5F5;" d="M 27 40 C 25 40 23 40 21 40 C 19 40 18 34 18 32 L 30 32 C 30 34 29 40 27 40 Z "/>
<path style=" fill:#F5F5F5;" d="M 32 36 C 32 37.105469 31.105469 38 30 38 C 28.894531 38 28 37.105469 28 36 C 28 34.894531 28.894531 34 30 34 C 31.105469 34 32 34.894531 32 36 Z "/>
<path style=" fill:#5D4037;" d="M 25 24 C 25 24.550781 24.550781 25 24 25 C 23.449219 25 23 24.550781 23 24 C 23 23.449219 23.449219 23 24 23 C 24.550781 23 25 23.449219 25 24 Z "/>
<path style=" fill:#5D4037;" d="M 25 27 C 25 27.550781 24.550781 28 24 28 C 23.449219 28 23 27.550781 23 27 C 23 26.449219 23.449219 26 24 26 C 24.550781 26 25 26.449219 25 27 Z "/>
<path style=" fill:#5D4037;" d="M 25 30 C 25 30.550781 24.550781 31 24 31 C 23.449219 31 23 30.550781 23 30 C 23 29.449219 23.449219 29 24 29 C 24.550781 29 25 29.449219 25 30 Z "/>
<path style=" fill:#B71C1C;" d="M 15 11 C 15 12.105469 14.105469 13 13 13 C 11.894531 13 11 12.105469 11 11 C 11 9.894531 11.894531 9 13 9 C 14.105469 9 15 9.894531 15 11 Z "/>
<path style=" fill:#FFCDD2;" d="M 37 11 C 37 12.65625 35.65625 14 34 14 C 32.34375 14 31 12.65625 31 11 C 31 9.34375 32.34375 8 34 8 C 35.65625 8 37 9.34375 37 11 Z "/>
</g>
</svg>