<svg xmlns="http://www.w3.org/2000/svg" xmlns:xlink="http://www.w3.org/1999/xlink" viewBox="0 0 48 48" version="1.1" width="100" height="100" style="fill: rgb(0, 0, 0);">
<g id="surface1">
<path style=" fill:#4DD0E1;" d="M 14 38 C 12 38 33 38 31 38 C 29 38 29 41 29 41 L 16 41 C 16 41 16 38 14 38 Z "/>
<path style=" fill:#0097A7;" d="M 34 22 C 36 22 40 15 40 15 L 45 15 L 45 16 L 44.5 16 C 41.5 17 42 20 41 26 C 40 32 35 33 35 33 C 35 33 32 22 34 22 Z "/>
<path style=" fill:#0097A7;" d="M 15 16 C 15 13.527344 18.027344 11 23 11 C 27.96875 11 31 13.527344 31 16 C 31 18.476563 27.96875 19.957031 23 19.957031 C 18.027344 19.957031 15 18.476563 15 16 Z "/>
<path style=" fill:#0097A7;" d="M 12.054688 15.316406 L 16.429688 16.679688 L 15.539063 19.542969 L 11.164063 18.179688 C 9.058594 17.527344 6.8125 18.703125 6.148438 20.824219 C 6.144531 20.84375 5.765625 22.535156 6.226563 25.367188 L 6.355469 26.167969 C 6.855469 29.386719 7.179688 30.558594 8.808594 31.0625 L 11.671875 31.957031 L 10.78125 34.820313 L 7.917969 33.929688 C 4.359375 32.820313 3.867188 29.675781 3.390625 26.632813 L 3.265625 25.851563 C 2.683594 22.277344 3.226563 20.109375 3.289063 19.917969 C 4.4375 16.234375 8.371094 14.167969 12.054688 15.316406 Z "/>
<path style=" fill:#4DD0E1;" d="M 32 14 C 32 14 36 24 36 31 C 36 38 31.074219 40 25 40 L 20 40 C 13.925781 40 9 38 9 31 C 9 24 14 14 14 14 Z "/>
<path style=" fill:#0097A7;" d="M 25 9 C 25 10.105469 24.105469 11 23 11 C 21.894531 11 21 10.105469 21 9 C 21 7.894531 21.894531 7 23 7 C 24.105469 7 25 7.894531 25 9 Z "/>
</g>
</svg>