<svg xmlns="http://www.w3.org/2000/svg" xmlns:xlink="http://www.w3.org/1999/xlink" viewBox="0 0 48 48" version="1.1" width="100" height="100" style="fill: rgb(0, 0, 0);">
<g id="surface1">
<path style=" fill:#90A4AE;" d="M 32 10.445313 C 32 8.480469 30.074219 5 24 5 C 17.925781 5 16 8.480469 16 10.445313 C 16 10.453125 16.003906 10.464844 16.003906 10.472656 C 16.003906 10.480469 16 10.488281 16 10.5 L 16 12.5 C 16 13.328125 16.671875 14 17.5 14 L 30.5 14 C 31.328125 14 32 13.328125 32 12.5 L 32 10.5 C 32 10.488281 31.996094 10.480469 31.996094 10.472656 C 31.996094 10.464844 32 10.453125 32 10.445313 Z "/>
<path style=" fill:#90CAF9;" d="M 32 41.5 C 32 42.328125 31.328125 43 30.5 43 L 17.5 43 C 16.671875 43 16 42.328125 16 41.5 L 16 15.5 C 16 14.671875 16.671875 14 17.5 14 L 30.5 14 C 31.328125 14 32 14.671875 32 15.5 Z "/>
<path style=" fill:#EEEEEE;" d="M 18 22 L 18 39.5 C 18 39.777344 18.222656 40 18.5 40 L 29.5 40 C 29.777344 40 30 39.777344 30 39.5 L 30 22 Z "/>
<path style=" fill:#37474F;" d="M 25 7 C 25 7.554688 24.550781 8 24 8 C 23.449219 8 23 7.554688 23 7 C 23 6.449219 23.449219 6 24 6 C 24.550781 6 25 6.449219 25 7 Z "/>
<path style=" fill:#37474F;" d="M 21 8 C 21 8.554688 20.550781 9 20 9 C 19.449219 9 19 8.554688 19 8 C 19 7.449219 19.449219 7 20 7 C 20.550781 7 21 7.449219 21 8 Z "/>
<path style=" fill:#37474F;" d="M 29 8 C 29 8.554688 28.550781 9 28 9 C 27.449219 9 27 8.554688 27 8 C 27 7.449219 27.449219 7 28 7 C 28.550781 7 29 7.449219 29 8 Z "/>
<path style=" fill:#B0BEC5;" d="M 24 37 C 24 37.554688 23.550781 38 23 38 C 22.449219 38 22 37.554688 22 37 C 22 36.449219 22.449219 36 23 36 C 23.550781 36 24 36.449219 24 37 Z "/>
<path style=" fill:#B0BEC5;" d="M 26 34 C 26 34.554688 25.550781 35 25 35 C 24.449219 35 24 34.554688 24 34 C 24 33.449219 24.449219 33 25 33 C 25.550781 33 26 33.449219 26 34 Z "/>
<path style=" fill:#B0BEC5;" d="M 28 37 C 28 37.554688 27.550781 38 27 38 C 26.449219 38 26 37.554688 26 37 C 26 36.449219 26.449219 36 27 36 C 27.550781 36 28 36.449219 28 37 Z "/>
</g>
</svg>