<svg xmlns="http://www.w3.org/2000/svg" xmlns:xlink="http://www.w3.org/1999/xlink" viewBox="0 0 48 48" version="1.1" width="100" height="100" style="fill: rgb(0, 0, 0);">
<g id="surface1">
<path style=" fill:#455A64;" d="M 11 25 L 6 24 L 6 22 L 11 22 Z "/>
<path style=" fill:#455A64;" d="M 37 25 L 42 24 L 42 22 L 37 22 Z "/>
<path style=" fill:#455A64;" d="M 19 8 L 19 10 C 22 10 22 14 22 14 L 26 14 C 26 14 26 10 29 10 L 29 8 Z "/>
<path style=" fill:#CFD8DC;" d="M 10 35 C 10 37.210938 11.789063 39 14 39 L 34 39 C 36.210938 39 38 37.210938 38 35 L 38 20 L 10 20 Z "/>
<path style=" fill:#C62828;" d="M 10 18 L 38 18 L 38 21 L 10 21 Z "/>
<path style=" fill:#F44336;" d="M 10 18 C 10 18 13 13 24 13 C 35 13 38 18 38 18 Z "/>
</g>
</svg>