<svg xmlns="http://www.w3.org/2000/svg" xmlns:xlink="http://www.w3.org/1999/xlink" viewBox="0 0 48 48" version="1.1" width="100" height="100" style="fill: rgb(0, 0, 0);">
<g id="surface1">
<path style=" fill:#90CAF9;" d="M 30 45 L 18 45 C 18 45 13 33 13 22.5 C 13 19 14 17 18.5 17 C 23 17 25 17 29.5 17 C 34 17 35 19 35 22.5 C 35 33 30 45 30 45 Z "/>
<path style=" fill:#42A5F5;" d="M 22 15 L 26 15 L 26 28 L 22 28 Z "/>
<path style=" fill:#EEEEEE;" d="M 28.996094 42 C 30.160156 38.753906 32.179688 32.421875 32.804688 26.121094 C 30.445313 27.640625 26.589844 26.898438 24.167969 26.03125 C 22.738281 25.519531 21.507813 24.738281 20 24.347656 C 19.222656 24.144531 18.464844 23.769531 17.664063 23.59375 C 16.835938 23.414063 15.902344 23.496094 15.027344 23.667969 C 15.277344 30.730469 17.6875 38.335938 19.003906 42 Z "/>
<path style=" fill:#3F51B5;" d="M 26 15 L 22 15 L 22 3 L 26 7 Z "/>
<path style=" fill:#1976D2;" d="M 33 15.5 C 33 16.328125 32.328125 17 31.5 17 L 16.5 17 C 15.671875 17 15 16.328125 15 15.5 L 15 13.5 C 15 12.671875 15.671875 12 16.5 12 L 31.5 12 C 32.328125 12 33 12.671875 33 13.5 Z "/>
<path style=" fill:#90A4AE;" d="M 20 32 C 20 32.550781 19.550781 33 19 33 C 18.449219 33 18 32.550781 18 32 C 18 31.449219 18.449219 31 19 31 C 19.550781 31 20 31.449219 20 32 Z "/>
<path style=" fill:#90A4AE;" d="M 22 29 C 22 29.550781 21.550781 30 21 30 C 20.449219 30 20 29.550781 20 29 C 20 28.449219 20.449219 28 21 28 C 21.550781 28 22 28.449219 22 29 Z "/>
<path style=" fill:#90A4AE;" d="M 24 32 C 24 32.550781 23.550781 33 23 33 C 22.449219 33 22 32.550781 22 32 C 22 31.449219 22.449219 31 23 31 C 23.550781 31 24 31.449219 24 32 Z "/>
</g>
</svg>