<svg xmlns="http://www.w3.org/2000/svg" xmlns:xlink="http://www.w3.org/1999/xlink" viewBox="0 0 48 48" version="1.1" width="100" height="100" style="fill: rgb(0, 0, 0);">
<g id="surface1">
<path style=" fill:#BCAAA4;" d="M 6 22 L 6 25 C 6 33.285156 12.714844 39 21 39 L 27 39 C 35.285156 39 42 33.285156 42 25 L 42 22 Z "/>
<path style=" fill:#795548;" d="M 27 39 L 21 39 C 19.613281 39 18.273438 38.824219 17 38.519531 L 17 40 C 17 40.554688 17.445313 41 18 41 L 30 41 C 30.554688 41 31 40.554688 31 40 L 31 38.519531 C 29.726563 38.824219 28.390625 39 27 39 Z "/>
<path style=" fill:#795548;" d="M 6 25 C 6 26.015625 6.105469 27.019531 6.296875 28 L 41.703125 28 C 41.894531 27.019531 42 26.015625 42 25 Z "/>
<path style=" fill:#795548;" d="M 37.414063 15.304688 L 36.140625 16.847656 L 32.277344 13.671875 L 33.550781 12.128906 C 33.550781 12.128906 33.910156 8.539063 34.546875 7.765625 C 35.816406 6.222656 37.359375 7.492188 37.359375 7.492188 L 41.222656 10.667969 C 41.222656 10.667969 42.765625 11.9375 41.496094 13.484375 C 40.863281 14.253906 37.414063 15.304688 37.414063 15.304688 Z "/>
<path style=" fill:#795548;" d="M 33.257813 22 L 37.414063 15.304688 C 38.640625 13.808594 38.246094 13.398438 36.753906 12.171875 C 35.261719 10.941406 34.777344 10.632813 33.550781 12.128906 L 22.957031 22 Z "/>
</g>
</svg>