<svg xmlns="http://www.w3.org/2000/svg" xmlns:xlink="http://www.w3.org/1999/xlink" viewBox="0 0 48 48" version="1.1" width="100" height="100" style="fill: rgb(0, 0, 0);">
<g id="surface1">
<path style=" fill:#B71C1C;" d="M 31 18 C 31 19.65625 29.65625 21 28 21 C 26.34375 21 25 19.65625 25 18 C 25 16.34375 26.34375 15 28 15 C 29.65625 15 31 16.34375 31 18 Z "/>
<path style=" fill:#B71C1C;" d="M 28 17 C 28 18.65625 26.65625 20 25 20 C 23.34375 20 22 18.65625 22 17 C 22 15.34375 23.34375 14 25 14 C 26.65625 14 28 15.34375 28 17 Z "/>
<path style=" fill:#B71C1C;" d="M 20 17 C 20 18.65625 18.65625 20 17 20 C 15.34375 20 14 18.65625 14 17 C 14 15.34375 15.34375 14 17 14 C 18.65625 14 20 15.34375 20 17 Z "/>
<path style=" fill:#B71C1C;" d="M 17 18 C 17 19.65625 15.65625 21 14 21 C 12.34375 21 11 19.65625 11 18 C 11 16.34375 12.34375 15 14 15 C 15.65625 15 17 16.34375 17 18 Z "/>
<path style=" fill:#B71C1C;" d="M 14 19 C 14 20.65625 12.65625 22 11 22 C 9.34375 22 8 20.65625 8 19 C 8 17.34375 9.34375 16 11 16 C 12.65625 16 14 17.34375 14 19 Z "/>
<path style=" fill:#B71C1C;" d="M 34 19 C 34 20.65625 32.65625 22 31 22 C 29.34375 22 28 20.65625 28 19 C 28 17.34375 29.34375 16 31 16 C 32.65625 16 34 17.34375 34 19 Z "/>
<path style=" fill:#B71C1C;" d="M 24 16 C 24 17.65625 22.65625 19 21 19 C 19.34375 19 18 17.65625 18 16 C 18 14.34375 19.34375 13 21 13 C 22.65625 13 24 14.34375 24 16 Z "/>
<path style="fill:none;stroke-width:2;stroke-linecap:round;stroke-linejoin:miter;stroke:#90CAF9;stroke-opacity:1;stroke-miterlimit:10;" d="M 37 22.128906 C 37 22.128906 37 20.480469 37 19.5 C 37 17.015625 39.015625 15 41.5 15 C 43.984375 15 46 17.015625 46 19.5 C 46 21.984375 43.984375 24 41.5 24 "/>
<path style=" fill:#90CAF9;" d="M 24.980469 36 L 19.082031 36 C 11.277344 36 7.121094 30.105469 6 24.859375 C 4.980469 20.085938 1 17 1 17 L 1 15 C 1 15 10.082031 18 21.75 18 C 33.417969 18 38.148438 15.007813 39.84375 14.269531 C 39.84375 14.269531 36.46875 17.054688 38 21.867188 C 38 29.71875 32.785156 36 24.980469 36 Z "/>
<path style=" fill:#64B5F6;" d="M 14 35 L 30 35 L 30 37 L 14 37 Z "/>
<path style=" fill:#90CAF9;" d="M 30 37 L 14 37 C 12.894531 37 12 37.894531 12 39 L 12 40 L 32 40 L 32 39 C 32 37.894531 31.105469 37 30 37 Z "/>
</g>
</svg>