<svg xmlns="http://www.w3.org/2000/svg" xmlns:xlink="http://www.w3.org/1999/xlink" viewBox="0 0 48 48" version="1.1" width="100" height="100" style="fill: rgb(0, 0, 0);">
<g id="surface1">
<path style="fill:none;stroke-width:2;stroke-linecap:round;stroke-linejoin:miter;stroke:#B0BEC5;stroke-opacity:1;stroke-miterlimit:10;" d="M 12 44 L 18 28 "/>
<path style="fill:none;stroke-width:2;stroke-linecap:round;stroke-linejoin:miter;stroke:#B0BEC5;stroke-opacity:1;stroke-miterlimit:10;" d="M 36 44 L 30 28 "/>
<path style=" fill:#455A64;" d="M 40 16 C 40 24.835938 32.835938 32 24 32 C 15.164063 32 8 24.835938 8 16 Z "/>
<path style=" fill:#BCAAA4;" d="M 28.570313 14 L 28.253906 13.546875 C 28.136719 13.355469 27.101563 11.648438 27.101563 10.015625 C 27.101563 9.035156 27.480469 8.433594 27.753906 7.992188 C 27.972656 7.640625 28.101563 7.425781 28.101563 7.015625 C 28.101563 6.117188 27.488281 4.925781 27.253906 4.539063 L 26.96875 4.085938 L 28.664063 3.03125 L 28.953125 3.484375 C 29.070313 3.675781 30.101563 5.382813 30.101563 7.015625 C 30.101563 7.996094 29.726563 8.601563 29.453125 9.042969 C 29.234375 9.394531 29.101563 9.605469 29.101563 10.015625 C 29.101563 10.914063 29.714844 12.105469 29.953125 12.488281 L 30.265625 12.945313 Z "/>
<path style=" fill:#BCAAA4;" d="M 23.585938 14 L 23.269531 13.546875 C 23.152344 13.355469 22.117188 11.648438 22.117188 10.015625 C 22.117188 9.035156 22.496094 8.433594 22.769531 7.992188 C 22.988281 7.640625 23.117188 7.425781 23.117188 7.015625 C 23.117188 6.117188 22.507813 4.925781 22.269531 4.539063 L 21.984375 4.085938 L 23.679688 3.03125 L 23.96875 3.484375 C 24.085938 3.675781 25.117188 5.382813 25.117188 7.015625 C 25.117188 7.996094 24.742188 8.601563 24.46875 9.042969 C 24.25 9.394531 24.117188 9.605469 24.117188 10.015625 C 24.117188 10.914063 24.730469 12.105469 24.96875 12.488281 L 25.28125 12.945313 Z "/>
<path style=" fill:#BCAAA4;" d="M 18.601563 14 L 18.285156 13.546875 C 18.167969 13.355469 17.136719 11.648438 17.136719 10.015625 C 17.136719 9.035156 17.511719 8.433594 17.785156 7.992188 C 18.003906 7.640625 18.136719 7.425781 18.136719 7.015625 C 18.136719 6.117188 17.523438 4.925781 17.285156 4.539063 L 17 4.085938 L 18.695313 3.03125 L 18.984375 3.484375 C 19.101563 3.675781 20.132813 5.382813 20.132813 7.015625 C 20.132813 7.996094 19.757813 8.601563 19.484375 9.042969 C 19.265625 9.394531 19.132813 9.605469 19.132813 10.015625 C 19.132813 10.914063 19.746094 12.105469 19.984375 12.488281 L 20.296875 12.945313 Z "/>
<path style="fill:none;stroke-width:2;stroke-linecap:round;stroke-linejoin:miter;stroke:#B0BEC5;stroke-opacity:1;stroke-miterlimit:10;" d="M 15 36 L 33 36 "/>
<path style=" fill:#455A64;" d="M 38 42 C 38 43.65625 36.65625 45 35 45 C 33.34375 45 32 43.65625 32 42 C 32 40.34375 33.34375 39 35 39 C 36.65625 39 38 40.34375 38 42 Z "/>
<path style=" fill:#B0BEC5;" d="M 36 42 C 36 42.550781 35.550781 43 35 43 C 34.449219 43 34 42.550781 34 42 C 34 41.449219 34.449219 41 35 41 C 35.550781 41 36 41.449219 36 42 Z "/>
</g>
</svg>