<svg xmlns="http://www.w3.org/2000/svg" xmlns:xlink="http://www.w3.org/1999/xlink" viewBox="0 0 48 48" version="1.1" width="100" height="100" style="fill: rgb(0, 0, 0);">
<g id="surface1">
<path style=" fill:#F48FB1;" d="M 34.71875 17.484375 C 34.167969 17.484375 30.515625 13.832031 30.515625 13.285156 L 29.472656 7.632813 C 29.472656 7.082031 29.917969 6.640625 30.464844 6.640625 C 30.464844 6.640625 36.117188 6.28125 38.917969 9.082031 C 41.71875 11.882813 41.359375 17.535156 41.359375 17.535156 C 41.359375 18.082031 40.914063 18.527344 40.367188 18.527344 Z "/>
<path style=" fill:#FF80AB;" d="M 34.414063 25.742188 L 33.363281 18.839844 C 32.953125 17.1875 30.949219 15.046875 29.160156 14.636719 L 22.449219 13.621094 C 20.109375 13.074219 17.636719 14.175781 16.675781 16.371094 L 10.902344 32.894531 L 15.105469 37.097656 L 31.664063 31.242188 C 33.863281 30.277344 35.101563 27.941406 34.414063 25.742188 Z "/>
<path style=" fill:#F8BBD0;" d="M 33.363281 17.4375 C 32.976563 17.824219 30.175781 15.023438 30.5625 14.636719 L 36.117188 6.28125 C 36.503906 5.894531 38.21875 5.582031 40.316406 7.683594 C 42.421875 9.78125 42.105469 11.496094 41.71875 11.882813 Z "/>
<path style=" fill:#9FA8DA;" d="M 12.304688 38.496094 L 9.503906 35.695313 L 6 40.601563 L 7.398438 42 Z "/>
<path style=" fill:#3F51B5;" d="M 8.804688 34.996094 C 8.414063 35.382813 8.414063 36.011719 8.804688 36.394531 L 11.605469 39.199219 C 11.992188 39.585938 12.617188 39.585938 13.003906 39.199219 L 15.105469 37.097656 L 10.902344 32.894531 Z "/>
<path style=" fill:#E91E63;" d="M 26.464844 18.957031 C 25.667969 19.375 23.707031 19.433594 23.339844 18.664063 C 22.773438 17.894531 23.984375 16.878906 24.976563 16.457031 C 26.164063 16.027344 30.246094 15.820313 30.246094 15.820313 C 30.246094 15.820313 27.847656 18.523438 26.464844 18.957031 Z "/>
<path style=" fill:#E91E63;" d="M 32.179688 17.753906 C 32.179688 17.753906 31.972656 21.839844 31.542969 23.023438 C 31.121094 24.015625 30.105469 25.226563 29.335938 24.660156 C 28.566406 24.292969 28.625 22.332031 29.042969 21.535156 C 29.476563 20.152344 32.179688 17.753906 32.179688 17.753906 Z "/>
<path style=" fill:#E91E63;" d="M 30.511719 13.285156 L 34.714844 17.484375 L 33.3125 18.886719 L 29.113281 14.683594 Z "/>
</g>
</svg>