<svg xmlns="http://www.w3.org/2000/svg" xmlns:xlink="http://www.w3.org/1999/xlink" viewBox="0 0 48 48" version="1.1" width="100" height="100" style="fill: rgb(0, 0, 0);">
<g id="surface1">
<path style=" fill:#FFD600;" d="M 38.859375 21.140625 C 38.488281 19.90625 37.355469 19 36 19 C 35.984375 19 35.96875 19.003906 35.949219 19.003906 C 35.707031 17.308594 34.261719 16 32.5 16 C 31.421875 16 30.46875 16.496094 29.828125 17.265625 C 29.417969 17.097656 28.972656 17 28.5 17 C 28.160156 17 27.839844 17.0625 27.527344 17.152344 C 26.859375 15.878906 25.539063 15 24 15 C 22.503906 15 21.210938 15.835938 20.527344 17.054688 C 20.355469 17.023438 20.179688 17 20 17 C 19.757813 17 19.523438 17.035156 19.296875 17.09375 C 18.746094 16.429688 17.929688 16 17 16 C 16.375 16 15.792969 16.191406 15.3125 16.519531 C 14.78125 16.195313 14.167969 16 13.5 16 C 11.566406 16 10 17.566406 10 19.5 C 10 19.6875 10.027344 19.867188 10.054688 20.046875 C 8.335938 20.265625 7 21.71875 7 23.5 C 7 25.433594 8.566406 27 10.5 27 C 10.671875 27 10.835938 26.972656 11 26.949219 L 11 27 L 37 27 L 37 26.816406 C 37.3125 26.929688 37.648438 27 38 27 C 39.65625 27 41 25.65625 41 24 C 41 22.644531 40.09375 21.511719 38.859375 21.140625 Z "/>
<path style=" fill:#5D4037;" d="M 5 24 L 43 24 C 43 24 42.933594 40 24 40 C 5.066406 40 5 24 5 24 Z "/>
<path style=" fill:#3E2723;" d="M 17 39 L 31 39 L 31 42 L 17 42 Z "/>
<path style=" fill:#2196F3;" d="M 41.503906 6.988281 L 40.4375 6.222656 C 39.902344 5.839844 39.15625 5.964844 38.773438 6.5 L 30.953125 18.03125 C 31.476563 18.554688 31.839844 19.234375 31.949219 20 L 33.199219 20 L 41.777344 8.644531 C 42.160156 8.113281 42.035156 7.371094 41.503906 6.988281 Z "/>
<path style=" fill:#FFAB00;" d="M 15 20 C 15 20.550781 14.550781 21 14 21 C 13.449219 21 13 20.550781 13 20 C 13 19.449219 13.449219 19 14 19 C 14.550781 19 15 19.449219 15 20 Z M 21 18 C 20.449219 18 20 18.449219 20 19 C 20 19.550781 20.449219 20 21 20 C 21.550781 20 22 19.550781 22 19 C 22 18.449219 21.550781 18 21 18 Z M 18 21 C 17.449219 21 17 21.449219 17 22 C 17 22.550781 17.449219 23 18 23 C 18.550781 23 19 22.550781 19 22 C 19 21.449219 18.550781 21 18 21 Z M 29 20 C 28.449219 20 28 20.449219 28 21 C 28 21.550781 28.449219 22 29 22 C 29.550781 22 30 21.550781 30 21 C 30 20.449219 29.550781 20 29 20 Z M 32 22 C 31.449219 22 31 22.449219 31 23 C 31 23.550781 31.449219 24 32 24 C 32.550781 24 33 23.550781 33 23 C 33 22.449219 32.550781 22 32 22 Z "/>
</g>
</svg>