<svg xmlns="http://www.w3.org/2000/svg" xmlns:xlink="http://www.w3.org/1999/xlink" viewBox="0 0 48 48" version="1.1" width="100" height="100" style="fill: rgb(0, 0, 0);">
<g id="surface1">
<path style=" fill:#546E7A;" d="M 37.292969 42 L 34.707031 42 C 33.765625 42 33 41.234375 33 40.292969 L 33 37.875 L 39 37.875 L 39 40.292969 C 39 41.234375 38.234375 42 37.292969 42 Z "/>
<path style=" fill:#546E7A;" d="M 13.375 42 L 10.710938 42 C 9.765625 42 9 41.234375 9 40.292969 L 9 37.875 L 15.082031 37.875 L 15.082031 40.292969 C 15.082031 41.234375 14.316406 42 13.375 42 Z "/>
<path style=" fill:#CFD8DC;" d="M 39.582031 40 L 8.414063 40 C 7.085938 40 6 39 6 37.664063 L 6 10.414063 C 6 9.085938 7.085938 8 8.414063 8 L 39.582031 8 C 40.914063 8 42 9.085938 42 10.414063 L 42 37.664063 C 42 39 40.914063 40 39.582031 40 Z "/>
<path style=" fill:#90A4AE;" d="M 6 15 L 42 15 L 42 17 L 6 17 Z "/>
<path style=" fill:#FF1744;" d="M 38 11.5 C 38 12.328125 37.328125 13 36.5 13 C 35.671875 13 35 12.328125 35 11.5 C 35 10.671875 35.671875 10 36.5 10 C 37.328125 10 38 10.671875 38 11.5 Z "/>
<path style=" fill:#37474F;" d="M 38 36 L 10 36 L 10 20 L 38 20 Z "/>
<path style=" fill:#37474F;" d="M 13 11.5 C 13 12.328125 12.328125 13 11.5 13 C 10.671875 13 10 12.328125 10 11.5 C 10 10.671875 10.671875 10 11.5 10 C 12.328125 10 13 10.671875 13 11.5 Z "/>
<path style=" fill:#37474F;" d="M 17 11.5 C 17 12.328125 16.328125 13 15.5 13 C 14.671875 13 14 12.328125 14 11.5 C 14 10.671875 14.671875 10 15.5 10 C 16.328125 10 17 10.671875 17 11.5 Z "/>
<path style=" fill:#37474F;" d="M 21 11.5 C 21 12.328125 20.328125 13 19.5 13 C 18.671875 13 18 12.328125 18 11.5 C 18 10.671875 18.671875 10 19.5 10 C 20.328125 10 21 10.671875 21 11.5 Z "/>
<path style=" fill:#37474F;" d="M 25 11.5 C 25 12.328125 24.328125 13 23.5 13 C 22.671875 13 22 12.328125 22 11.5 C 22 10.671875 22.671875 10 23.5 10 C 24.328125 10 25 10.671875 25 11.5 Z "/>
<path style=" fill:#37474F;" d="M 22.167969 8 L 22.167969 7.707031 C 22.167969 6.765625 21.398438 6 20.457031 6 L 11.957031 6 C 11.015625 6 10.25 6.765625 10.25 7.707031 L 10.25 8 Z "/>
<path style=" fill:#37474F;" d="M 37.75 8 L 37.75 7.707031 C 37.75 6.765625 36.984375 6 36.042969 6 L 29.667969 6 C 28.726563 6 27.957031 6.765625 27.957031 7.707031 L 27.957031 8 Z "/>
</g>
</svg>