<svg xmlns="http://www.w3.org/2000/svg" xmlns:xlink="http://www.w3.org/1999/xlink" viewBox="0 0 48 48" version="1.1" width="100" height="100" style="fill: rgb(0, 0, 0);">
<g id="surface1">
<path style=" fill:#90A4AE;" d="M 27.460938 23.691406 C 27.84375 23.308594 27.84375 22.691406 27.460938 22.308594 L 24.691406 19.535156 C 24.308594 19.152344 23.691406 19.152344 23.308594 19.535156 L 21.230469 21.613281 C 20.847656 21.996094 20.847656 22.613281 21.230469 23 L 24 25.769531 C 24.382813 26.152344 25.003906 26.152344 25.386719 25.769531 Z "/>
<path style="fill:none;stroke-width:2;stroke-linecap:butt;stroke-linejoin:miter;stroke:#90A4AE;stroke-opacity:1;stroke-miterlimit:4;" d="M 24 23 C 24 23 21.230469 25.769531 20.539063 26.460938 C 19.847656 27.152344 21.230469 28.535156 20.539063 29.230469 C 19.847656 29.921875 16.386719 27.847656 15.691406 28.539063 C 15 29.230469 17.078125 32.691406 16.382813 33.386719 C 15.691406 34.078125 12.230469 32 11.539063 32.691406 C 10.847656 33.386719 12.921875 36.847656 12.230469 37.539063 C 11.539063 38.230469 8.910156 35.664063 8.164063 36.242188 C 7.414063 36.820313 8.769531 38.230469 8.074219 38.925781 C 7.386719 39.613281 6 41 6 41 "/>
<path style=" fill:#9B2310;" d="M 20.539063 5.691406 L 41.308594 26.460938 L 36.464844 31.304688 L 15.695313 10.535156 Z "/>
<path style=" fill:#B0BEC5;" d="M 19.847656 5 L 21.230469 6.382813 L 16.382813 11.230469 L 15 9.84375 Z "/>
<path style=" fill:#B0BEC5;" d="M 37.15625 32 L 35.769531 30.617188 L 40.617188 25.769531 L 42 27.152344 Z "/>
<path style=" fill:#B0BEC5;" d="M 23.308594 18.152344 L 21.925781 19.535156 L 27.460938 25.078125 L 28.847656 23.691406 C 28.273438 23.117188 28.894531 21.566406 30.230469 20.230469 C 31.570313 18.890625 33.117188 18.269531 33.695313 18.84375 C 33.695313 18.84375 35.078125 17.460938 32.308594 14.691406 C 29.539063 11.921875 28.15625 13.304688 28.15625 13.304688 C 28.726563 13.882813 28.105469 15.429688 26.769531 16.769531 C 25.433594 18.105469 23.882813 18.726563 23.308594 18.152344 Z "/>
</g>
</svg>