<svg xmlns="http://www.w3.org/2000/svg" xmlns:xlink="http://www.w3.org/1999/xlink" viewBox="0 0 48 48" version="1.1" width="100" height="100" style="fill: rgb(0, 0, 0);">
<g id="surface1">
<path style=" fill:#90CAF9;" d="M 0 18.101563 C 0 18.101563 1 14 6.898438 14 C 12.800781 14 16.5 19 23 19 C 29.5 19 38 17.199219 39 17 C 39 19.199219 35.800781 31.800781 23 32 C 9.601563 32.199219 7.300781 21.699219 4.101563 19.5 C 1.398438 17.601563 0 18.101563 0 18.101563 Z "/>
<path style=" fill:#64B5F6;" d="M 48 17 C 48 26.398438 33.800781 28.699219 32.300781 29 C 33.398438 28.199219 34.300781 27.300781 35 26.398438 C 39.199219 25.300781 46 22.601563 46 17.101563 C 46 13.300781 43.101563 13.101563 42.898438 13.101563 C 42.699219 13.101563 40.5 13.300781 40 16.101563 C 41.101563 16.101563 41.898438 17 41.898438 18.101563 C 41.898438 19.199219 41 20.101563 39.898438 20.101563 C 38.800781 20.101563 37.898438 19.199219 37.898438 18.101563 L 37.898438 17.101563 C 37.898438 12.398438 41.199219 11.101563 42.898438 11.101563 C 44.800781 11.101563 48 12.5 48 17 Z M 26.5 33.800781 C 24.601563 32.398438 29 30.898438 29 30.898438 L 28.898438 30.898438 C 27.199219 31.5 25.300781 32 23 32 C 20 32.101563 17.5 31.5 15.5 30.699219 L 15.398438 30.699219 C 15.398438 30.699219 19.601563 32.300781 17.300781 33.800781 C 15.101563 34.699219 14 36 14 36 L 14 37 L 30 37 L 30 36 C 30 36 28.898438 34.699219 26.5 33.800781 Z "/>
</g>
</svg>