<svg xmlns="http://www.w3.org/2000/svg" xmlns:xlink="http://www.w3.org/1999/xlink" viewBox="0 0 48 48" version="1.1" width="100" height="100" style="fill: rgb(0, 0, 0);">
<g id="surface1">
<path style=" fill:#90CAF9;" d="M 11 34 C 11 35.105469 10.105469 36 9 36 C 7.894531 36 7 35.105469 7 34 C 7 32.894531 7.894531 32 9 32 C 10.105469 32 11 32.894531 11 34 Z "/>
<path style=" fill:#90CAF9;" d="M 14 40 C 14 41.105469 13.105469 42 12 42 C 10.894531 42 10 41.105469 10 40 C 10 38.894531 10.894531 38 12 38 C 13.105469 38 14 38.894531 14 40 Z "/>
<path style=" fill:#90CAF9;" d="M 40.679688 21.164063 L 37.714844 18.199219 C 37.304688 17.789063 36.640625 17.789063 36.230469 18.199219 C 35.820313 18.609375 35.15625 18.609375 34.75 18.199219 L 28.816406 12.269531 C 28.40625 11.859375 28.40625 11.195313 28.816406 10.789063 C 29.226563 10.378906 29.226563 9.71875 28.816406 9.308594 L 25.847656 6.34375 C 25.4375 5.933594 24.773438 5.933594 24.363281 6.34375 L 7.308594 23.390625 C 6.898438 23.796875 6.898438 24.460938 7.308594 24.867188 L 22.140625 39.691406 C 22.550781 40.101563 23.214844 40.101563 23.621094 39.691406 L 40.679688 22.648438 C 41.089844 22.238281 41.089844 21.574219 40.679688 21.164063 Z "/>
<path style=" fill:#ECEFF1;" d="M 25.847656 34.503906 L 12.5 21.164063 L 22.882813 10.789063 L 36.230469 24.128906 Z "/>
<path style=" fill:#3F51B5;" d="M 28.816406 9.308594 C 29.222656 9.71875 29.222656 10.382813 28.8125 10.789063 C 28.402344 11.195313 28.402344 11.859375 28.8125 12.269531 L 34.746094 18.199219 C 35.15625 18.609375 35.820313 18.609375 36.230469 18.199219 C 36.640625 17.789063 37.304688 17.789063 37.714844 18.199219 L 40.625 21.109375 C 41.257813 20.113281 41.046875 18.96875 40.207031 17.59375 C 40.207031 17.59375 38.183594 14.226563 35.488281 11.53125 C 32.792969 8.835938 29.421875 6.8125 29.421875 6.8125 C 28.027344 5.921875 26.894531 5.75 25.898438 6.394531 Z "/>
<path style=" fill:#3F51B5;" d="M 19.359375 31.355469 L 15.648438 31.355469 L 15.648438 27.648438 Z "/>
</g>
</svg>