<svg xmlns="http://www.w3.org/2000/svg" xmlns:xlink="http://www.w3.org/1999/xlink" viewBox="0 0 48 48" version="1.1" width="100" height="100" style="fill: rgb(0, 0, 0);">
<g id="surface1">
<path style="fill:none;stroke-width:2;stroke-linecap:round;stroke-linejoin:round;stroke:#0097A7;stroke-opacity:1;stroke-miterlimit:10;" d="M 34 21 C 34 18.597656 36.597656 16 39 16 C 42.0625 16 44 17.75 44 21 C 44 27.4375 34.191406 25.320313 32.28125 30 "/>
<path style=" fill:#00BCD4;" d="M 3 9 C 3 26 12 34 12 34 L 28 34 C 28 34 37 26.039063 37 9 Z "/>
<path style=" fill:#FFC107;" d="M 12 34 L 28 34 L 28 36 L 12 36 Z "/>
<path style=" fill:#0097A7;" d="M 28 36 L 12 36 C 12 36 9 37.210938 9 40 L 31 40 C 31 37.210938 28 36 28 36 Z "/>
<path style=" fill:#FFC107;" d="M 3 9 L 37 9 L 37 11 L 3 11 Z "/>
<path style=" fill:#E0F7FA;" d="M 9 15 C 9 15.550781 8.550781 16 8 16 C 7.449219 16 7 15.550781 7 15 C 7 14.449219 7.449219 14 8 14 C 8.550781 14 9 14.449219 9 15 Z "/>
<path style=" fill:#E0F7FA;" d="M 13 19 C 13 19.550781 12.550781 20 12 20 C 11.449219 20 11 19.550781 11 19 C 11 18.449219 11.449219 18 12 18 C 12.550781 18 13 18.449219 13 19 Z "/>
<path style=" fill:#E0F7FA;" d="M 17 23 C 17 23.550781 16.550781 24 16 24 C 15.449219 24 15 23.550781 15 23 C 15 22.449219 15.449219 22 16 22 C 16.550781 22 17 22.449219 17 23 Z "/>
<path style=" fill:#E0F7FA;" d="M 21 27 C 21 27.550781 20.550781 28 20 28 C 19.449219 28 19 27.550781 19 27 C 19 26.449219 19.449219 26 20 26 C 20.550781 26 21 26.449219 21 27 Z "/>
<path style=" fill:#E0F7FA;" d="M 21 19 C 21 19.550781 20.550781 20 20 20 C 19.449219 20 19 19.550781 19 19 C 19 18.449219 19.449219 18 20 18 C 20.550781 18 21 18.449219 21 19 Z "/>
<path style=" fill:#E0F7FA;" d="M 25 15 C 25 15.550781 24.550781 16 24 16 C 23.449219 16 23 15.550781 23 15 C 23 14.449219 23.449219 14 24 14 C 24.550781 14 25 14.449219 25 15 Z "/>
<path style=" fill:#E0F7FA;" d="M 17 15 C 17 15.550781 16.550781 16 16 16 C 15.449219 16 15 15.550781 15 15 C 15 14.449219 15.449219 14 16 14 C 16.550781 14 17 14.449219 17 15 Z "/>
<path style=" fill:#E0F7FA;" d="M 9 23 C 9 23.550781 8.550781 24 8 24 C 7.449219 24 7 23.550781 7 23 C 7 22.449219 7.449219 22 8 22 C 8.550781 22 9 22.449219 9 23 Z "/>
<path style=" fill:#E0F7FA;" d="M 13 27 C 13 27.550781 12.550781 28 12 28 C 11.449219 28 11 27.550781 11 27 C 11 26.449219 11.449219 26 12 26 C 12.550781 26 13 26.449219 13 27 Z "/>
<path style=" fill:#E0F7FA;" d="M 17 31 C 17 31.550781 16.550781 32 16 32 C 15.449219 32 15 31.550781 15 31 C 15 30.449219 15.449219 30 16 30 C 16.550781 30 17 30.449219 17 31 Z "/>
<path style=" fill:#E0F7FA;" d="M 25 23 C 25 23.550781 24.550781 24 24 24 C 23.449219 24 23 23.550781 23 23 C 23 22.449219 23.449219 22 24 22 C 24.550781 22 25 22.449219 25 23 Z "/>
<path style=" fill:#E0F7FA;" d="M 29 19 C 29 19.550781 28.550781 20 28 20 C 27.449219 20 27 19.550781 27 19 C 27 18.449219 27.449219 18 28 18 C 28.550781 18 29 18.449219 29 19 Z "/>
<path style=" fill:#E0F7FA;" d="M 33 15 C 33 15.550781 32.550781 16 32 16 C 31.449219 16 31 15.550781 31 15 C 31 14.449219 31.449219 14 32 14 C 32.550781 14 33 14.449219 33 15 Z "/>
<path style=" fill:#E0F7FA;" d="M 33 23 C 33 23.550781 32.550781 24 32 24 C 31.449219 24 31 23.550781 31 23 C 31 22.449219 31.449219 22 32 22 C 32.550781 22 33 22.449219 33 23 Z "/>
<path style=" fill:#E0F7FA;" d="M 29 27 C 29 27.550781 28.550781 28 28 28 C 27.449219 28 27 27.550781 27 27 C 27 26.449219 27.449219 26 28 26 C 28.550781 26 29 26.449219 29 27 Z "/>
<path style=" fill:#E0F7FA;" d="M 25 31 C 25 31.550781 24.550781 32 24 32 C 23.449219 32 23 31.550781 23 31 C 23 30.449219 23.449219 30 24 30 C 24.550781 30 25 30.449219 25 31 Z "/>
</g>
</svg>