<svg xmlns="http://www.w3.org/2000/svg" xmlns:xlink="http://www.w3.org/1999/xlink" viewBox="0 0 48 48" version="1.1" width="100" height="100" style="fill: rgb(0, 0, 0);">
<g id="surface1">
<path style=" fill:#3F51B5;" d="M 36 43 C 34.398438 43 33.101563 41.601563 33.101563 40 L 34 17 L 38 17 L 38.898438 40 C 38.898438 41.601563 37.601563 43 36 43 Z "/>
<path style=" fill:#3F51B5;" d="M 41 5 L 39 5 L 39 16 C 39 16.601563 38.601563 17 38 17 C 37.398438 17 37 16.601563 37 16 L 37 5 L 35 5 L 35 16 C 35 16.601563 34.601563 17 34 17 C 33.398438 17 33 16.601563 33 16 L 33 5 L 31 5 C 31 5 29 13.101563 29 17 C 29 20.898438 32.101563 24 36 24 C 39.898438 24 43 20.898438 43 17 C 43 13.101563 41 5 41 5 Z "/>
<path style=" fill:#90CAF9;" d="M 18 31.601563 C 23.199219 30.300781 27 25.601563 27 20 C 27 15 25 5 25 5 L 7 5 C 7 5 5 15 5 20 C 5 25.601563 8.800781 30.300781 14 31.601563 L 14 37.699219 C 14 39.199219 13 40.5 11.5 40.800781 L 7 42 L 7 43 L 25 43 L 25 42 L 20.5 40.898438 C 19 40.5 18 39.199219 18 37.699219 Z "/>
<path style="fill:none;stroke-width:2;stroke-linecap:round;stroke-linejoin:miter;stroke:#BBDEFB;stroke-opacity:1;stroke-miterlimit:10;" d="M 11.800781 25.101563 C 10.101563 24 9 22.101563 9 20 L 10 9 "/>
</g>
</svg>