<svg xmlns="http://www.w3.org/2000/svg" xmlns:xlink="http://www.w3.org/1999/xlink" viewBox="0 0 48 48" version="1.1" width="100" height="100" style="fill: rgb(0, 0, 0);">
<g id="surface1">
<path style=" fill:#C0CA33;" d="M 31.5 25 C 28.5 25 26 22.5 26 19.5 C 26 16.5 28.5 14 31.5 14 C 34.5 14 37 16.5 37 19.5 C 37 22.5 34.5 25 31.5 25 Z M 31.5 16 C 29.601563 16 28 17.601563 28 19.5 C 28 21.398438 29.601563 23 31.5 23 C 33.398438 23 35 21.398438 35 19.5 C 35 17.601563 33.398438 16 31.5 16 Z M 29 7 C 29 6.398438 28.601563 6 28 6 L 20 6 C 19.398438 6 19 6.398438 19 7 C 19 7.601563 19.398438 8 20 8 L 28 8 C 28.601563 8 29 7.601563 29 7 Z "/>
<path style=" fill:#E6EE9C;" d="M 20 8 L 20 19 C 20 20.300781 19.101563 21.601563 17.898438 22 C 12.601563 23.699219 9 27.5 9 32 C 9 37.101563 14.699219 42.800781 16.5 44.5 C 16.800781 44.800781 17.300781 45 17.699219 45 L 30.5 45 C 30.800781 45 31.199219 44.898438 31.5 44.699219 C 34.5 42.699219 39.101563 36.699219 39.101563 32 C 39.101563 27.5 35.5 23.699219 30.199219 22 C 28.898438 21.601563 28.101563 20.398438 28.101563 19 L 28.101563 8 Z "/>
<path style=" fill:#B2EBF2;" d="M 31 45 C 31.101563 45 31.5 44.800781 32 44.300781 "/>
<path style=" fill:#AFB42B;" d="M 12.398438 28 C 11.5 29.199219 11 30.601563 11 32 C 11 35.398438 14.5 39.898438 17.800781 43 L 30.398438 43 C 33.101563 41.101563 37 35.800781 37 32 C 37 30.601563 36.5 29.199219 35.601563 28 Z "/>
<path style=" fill:#795548;" d="M 21 3 L 27 3 L 27 6 L 21 6 Z "/>
<path style=" fill:#AFB42B;" d="M 21 6 L 27 6 L 27 8 L 21 8 Z "/>
<path style=" fill:#F0F4C3;" d="M 13 32 C 13 34.101563 15.601563 37.699219 19 41 C 16.101563 38 15 33.199219 15 32 C 15 30.199219 16 28.898438 17.898438 28 C 16.898438 28 15.699219 28 14.5 28 C 13.5 29.199219 13 30.601563 13 32 Z "/>
<path style=" fill:#F9FBE7;" d="M 23 16 C 23 21.398438 21 24.800781 18.101563 25.800781 C 16.5 26.300781 15.300781 27.101563 14.5 28 C 15.601563 28 16.800781 28 17.898438 28 C 18.199219 27.898438 18.398438 27.800781 18.699219 27.699219 C 20.898438 27 23 24.5 23 16 Z "/>
</g>
</svg>