<svg id="_4-footer_icons" data-name="4-footer_icons" xmlns="http://www.w3.org/2000/svg" viewBox="0 0 66.83 64.22">
  <title>icon</title>
  <g>
    <rect x="9.98" y="25.47" width="47.38" height="29.13" style="fill: none;stroke: #244384;stroke-linecap: round;stroke-linejoin: round;stroke-width: 2.20000004768372px"/>
    <rect x="16.98" y="32.35" width="13.25" height="22.25" style="fill: #d8e1f2;stroke: #244384;stroke-linecap: round;stroke-linejoin: round;stroke-width: 2.20000004768372px"/>
    <rect x="37.35" y="35.81" width="13.25" height="11.97" style="fill: #d8e1f2;stroke: #244384;stroke-linecap: round;stroke-linejoin: round;stroke-width: 2.20000004768372px"/>
    <path d="M14.6,1.1H52.73a4.63,4.63,0,0,1,4.63,4.63V16.1a0,0,0,0,1,0,0H10a0,0,0,0,1,0,0V5.73A4.63,4.63,0,0,1,14.6,1.1Z" style="fill: #d8e1f2;stroke: #244384;stroke-linecap: round;stroke-linejoin: round;stroke-width: 2.20000004768372px"/>
    <polygon points="65.72 25.47 1.1 25.47 9.61 16.1 57.22 16.1 65.72 25.47" style="fill: #5cc766;stroke: #244384;stroke-linecap: round;stroke-linejoin: round;stroke-width: 2.20000004768372px"/>
    <polygon points="65.72 63.12 1.1 63.12 9.61 54.6 57.22 54.6 65.72 63.12" style="fill: none;stroke: #244384;stroke-linecap: round;stroke-linejoin: round;stroke-width: 2.20000004768372px"/>
    <line x1="17.63" y1="58.7" x2="29" y2="58.7" style="fill: none;stroke: #244384;stroke-linecap: round;stroke-linejoin: round;stroke-width: 2.20000004768372px"/>
    <line x1="9.47" y1="25.47" x2="17.26" y2="16.1" style="fill: none;stroke: #244384;stroke-linecap: round;stroke-linejoin: round;stroke-width: 2.20000004768372px"/>
    <line x1="17.71" y1="25.47" x2="25.49" y2="16.1" style="fill: none;stroke: #244384;stroke-linecap: round;stroke-linejoin: round;stroke-width: 2.20000004768372px"/>
    <line x1="26.33" y1="25.47" x2="34.12" y2="16.1" style="fill: none;stroke: #244384;stroke-linecap: round;stroke-linejoin: round;stroke-width: 2.20000004768372px"/>
    <line x1="34.97" y1="25.47" x2="42.75" y2="16.1" style="fill: none;stroke: #244384;stroke-linecap: round;stroke-linejoin: round;stroke-width: 2.20000004768372px"/>
    <line x1="43.19" y1="25.47" x2="50.98" y2="16.1" style="fill: none;stroke: #244384;stroke-linecap: round;stroke-linejoin: round;stroke-width: 2.20000004768372px"/>
    <line x1="51.78" y1="25.47" x2="58.33" y2="17.83" style="fill: none;stroke: #244384;stroke-linecap: round;stroke-linejoin: round;stroke-width: 2.20000004768372px"/>
    <g>
      <line x1="27.4" y1="5.74" x2="27.4" y2="12.03" style="fill: none;stroke: #244384;stroke-linecap: round;stroke-linejoin: round;stroke-width: 2.20000004768372px"/>
      <line x1="32.11" y1="5.74" x2="32.11" y2="12.03" style="fill: none;stroke: #244384;stroke-linecap: round;stroke-linejoin: round;stroke-width: 2.20000004768372px"/>
      <line x1="45.81" y1="5.74" x2="45.81" y2="12.03" style="fill: none;stroke: #244384;stroke-linecap: round;stroke-linejoin: round;stroke-width: 2.20000004768372px"/>
      <line x1="32.11" y1="8.88" x2="27.4" y2="8.88" style="fill: none;stroke: #244384;stroke-linecap: round;stroke-linejoin: round;stroke-width: 2.20000004768372px"/>
      <rect x="36.39" y="5.42" width="4.79" height="6.69" rx="2.18" ry="2.18" style="fill: none;stroke: #244384;stroke-linecap: round;stroke-linejoin: round;stroke-width: 2.20000004768372px"/>
      <path d="M21.28,8.78c4,1.36.48,5.19-2,2.37" style="fill: none;stroke: #244384;stroke-linecap: round;stroke-linejoin: round;stroke-width: 2.20000004768372px"/>
      <path d="M21.28,8.78c-4-1.36-.69-5.19,1.8-2.37" style="fill: none;stroke: #244384;stroke-linecap: round;stroke-linejoin: round;stroke-width: 2.20000004768372px"/>
      <path d="M45.81,5.74h1.91a1.91,1.91,0,0,1,1.91,1.91v0a1.91,1.91,0,0,1-1.91,1.91H45.81a0,0,0,0,1,0,0V5.74A0,0,0,0,1,45.81,5.74Z" style="fill: none;stroke: #244384;stroke-linecap: round;stroke-linejoin: round;stroke-width: 2.20000004768372px"/>
    </g>
  </g>
</svg>
