<svg xmlns="http://www.w3.org/2000/svg" xmlns:xlink="http://www.w3.org/1999/xlink" viewBox="0 0 48 48" version="1.1" width="100" height="100" style="fill: rgb(0, 0, 0);">
<g id="surface1">
<path style=" fill:#3F51B5;" d="M 28 43 C 28 44.105469 28.894531 45 30 45 L 32 45 C 33.105469 45 34 44.105469 34 43 L 33 26 C 33 24.894531 33.105469 24 32 24 L 31 24 C 29.894531 24 29 24.894531 29 26 Z "/>
<path style=" fill:#3F51B5;" d="M 20 21 L 16 21 L 15 43 C 15 44.105469 15.894531 45 17 45 L 19 45 C 20.105469 45 21 44.105469 21 43 Z "/>
<path style=" fill:#2196F3;" d="M 33 3 L 33 26 L 29 26 C 24 7 31 3 33 3 Z "/>
<path style=" fill:#2196F3;" d="M 21 3 L 21 16 L 19 16 L 19 3 L 17 3 L 17 16 L 15 16 L 15 3 L 13 3 L 12 17 L 16 21 L 20 21 L 24 17 L 23 3 Z "/>
</g>
</svg>