<svg xmlns="http://www.w3.org/2000/svg" xmlns:xlink="http://www.w3.org/1999/xlink" viewBox="0 0 48 48" version="1.1" width="100" height="100" style="fill: rgb(0, 0, 0);">
<g id="surface1">
<path style=" fill:#E0F2F1;" d="M 42 16 L 6 16 L 6 17.898438 L 7.800781 17.898438 C 8.199219 17.898438 8.398438 18.300781 8.5 18.5 L 9.601563 27.300781 C 9.800781 29.398438 11.699219 31.101563 13.800781 31.101563 L 34.101563 31.101563 C 36.199219 31.101563 38.101563 29.398438 38.300781 27.300781 L 39.398438 18.5 C 39.5 18.101563 39.699219 17.800781 40.101563 17.800781 L 41.898438 17.800781 Z "/>
<path style=" fill:#F44336;" d="M 24 8.699219 C 14.199219 8.699219 7.601563 16 7.601563 16 L 40.300781 16 C 40.398438 16 33.800781 8.699219 24 8.699219 Z "/>
<path style=" fill:#F44336;" d="M 25.800781 10.601563 L 22.199219 10.601563 L 21.101563 7.699219 C 21.101563 7.300781 21.300781 7 21.800781 7 L 26.300781 7 C 26.699219 7 27 7.398438 26.800781 7.699219 Z "/>
<path style=" fill:#F44336;" d="M 39 42 L 9 42 C 7.699219 42 6.699219 40.699219 7.101563 39.398438 L 8.898438 33.398438 C 9.199219 32.601563 9.898438 32 10.800781 32 L 37.199219 32 C 38.101563 32 38.898438 32.601563 39.101563 33.398438 L 40.898438 39.398438 C 41.300781 40.699219 40.300781 42 39 42 Z "/>
<path style=" fill:#FFFFFF;" d="M 24 34 C 22.300781 34 21 35.300781 21 37 C 21 38.699219 22.300781 40 24 40 C 25.699219 40 27 38.699219 27 37 C 27 35.300781 25.699219 34 24 34 Z M 25.800781 36.101563 L 23 38.898438 C 22.800781 39.101563 22.398438 39.101563 22.101563 38.898438 C 21.898438 38.699219 21.898438 38.300781 22.101563 38 L 24.898438 35.199219 C 25.101563 35 25.5 35 25.800781 35.199219 C 26.101563 35.398438 26.101563 35.800781 25.800781 36.101563 Z "/>
<path style=" fill:#80CBC4;" d="M 36 22 C 35.300781 22 34.699219 22.199219 34.199219 22.601563 C 33.5 21.601563 32.300781 21 31 21 C 29.898438 21 28.898438 21.5 28.101563 22.199219 C 27.199219 20.898438 25.699219 20 24 20 C 22.300781 20 20.800781 20.898438 19.898438 22.199219 C 19.101563 21.5 18.101563 21 17 21 C 15.699219 21 14.5 21.601563 13.800781 22.601563 C 13.300781 22.199219 12.699219 22 12 22 C 10.300781 22 9 23.300781 9 25 L 10.199219 28.5 C 10.699219 30 12.101563 31 13.699219 31 L 34.398438 31 C 36 31 37.398438 30 37.898438 28.5 L 39 25 C 39 23.300781 37.699219 22 36 22 Z "/>
<path style=" fill:#009688;" d="M 43 16 L 41.101563 16 C 39.800781 16 38.699219 17 38.398438 18.398438 L 37.199219 27.800781 C 37 29 35.898438 30 34.699219 30 L 13.300781 30 C 12.101563 30 11 29 10.800781 27.800781 L 9.601563 18.398438 C 9.300781 17 8.199219 16 6.898438 16 L 5 16 L 5 18 L 6.898438 18 C 7.300781 18 7.601563 18.398438 7.601563 18.699219 L 8.800781 28 C 9 30.199219 11 32 13.300781 32 L 34.699219 32 C 36.898438 32 38.898438 30.199219 39.101563 28 L 40.300781 18.699219 C 40.398438 18.300781 40.699219 17.898438 41.101563 17.898438 L 43 17.898438 Z "/>
</g>
</svg>