<svg xmlns="http://www.w3.org/2000/svg" xmlns:xlink="http://www.w3.org/1999/xlink" viewBox="0 0 48 48" version="1.1" width="100" height="100" style="fill: rgb(0, 0, 0);">
<g id="surface1">
<path style=" fill:#2196F3;" d="M 44 12.90625 L 28.273438 18.042969 C 27.484375 18.273438 27.023438 19.101563 27.25 19.886719 L 27.8125 21.9375 C 28.039063 22.730469 28.859375 23.179688 29.648438 22.953125 L 44 19.957031 Z "/>
<path style=" fill:#2196F3;" d="M 4.066406 26.316406 C 4.660156 28.398438 11.648438 36.496094 23.058594 33.234375 C 34.46875 29.96875 31.675781 20.160156 31.675781 20.160156 C 31.675781 20.160156 31.234375 18.617188 31.21875 18.558594 C 31.21875 18.5625 3.46875 24.242188 4.066406 26.316406 Z "/>
<path style=" fill:#3F51B5;" d="M 31.21875 18.5625 C 32.347656 22.496094 29.332031 26.8125 21.832031 28.957031 C 14.332031 31.101563 4.886719 29.171875 4.066406 26.316406 C 3.246094 23.46875 10.238281 16.84375 17.738281 14.699219 C 25.234375 12.558594 30.085938 14.621094 31.21875 18.5625 Z "/>
<path style=" fill:#CFD8DC;" d="M 7.144531 25.441406 C 9.019531 26.5625 15.394531 27.710938 21.011719 26.105469 C 26.140625 24.640625 29.214844 21.902344 28.480469 19.34375 L 19.222656 14.324219 L 15.8125 12.1875 C 15.09375 11.789063 14.191406 12.046875 13.792969 12.765625 L 11.546875 17.488281 L 7.109375 25.453125 Z "/>
<path style=" fill:#78909C;" d="M 15.167969 21.847656 C 15.167969 22.40625 14.710938 22.859375 14.152344 22.859375 C 13.589844 22.859375 13.136719 22.40625 13.136719 21.847656 C 13.136719 21.285156 13.589844 20.832031 14.152344 20.832031 C 14.710938 20.832031 15.167969 21.285156 15.167969 21.847656 Z "/>
<path style=" fill:#78909C;" d="M 16.28125 18.367188 C 16.28125 18.925781 15.824219 19.382813 15.265625 19.382813 C 14.703125 19.382813 14.25 18.925781 14.25 18.367188 C 14.25 17.804688 14.703125 17.351563 15.265625 17.351563 C 15.824219 17.351563 16.28125 17.804688 16.28125 18.367188 Z "/>
<path style=" fill:#78909C;" d="M 19.070313 20.730469 C 19.070313 21.289063 18.617188 21.746094 18.054688 21.746094 C 17.496094 21.746094 17.039063 21.289063 17.039063 20.730469 C 17.039063 20.167969 17.496094 19.714844 18.054688 19.714844 C 18.617188 19.714844 19.070313 20.167969 19.070313 20.730469 Z "/>
</g>
</svg>