<svg xmlns="http://www.w3.org/2000/svg" xmlns:xlink="http://www.w3.org/1999/xlink" viewBox="0 0 48 48" version="1.1" width="100" height="100" style="fill: rgb(0, 0, 0);">
<g id="surface1">
<path style=" fill:#90CAF9;" d="M 33 26 C 33 19.5 29 21 29 7 C 29 7 21 7 19 7 C 19 21 15 19.5 15 26 L 15 41.5 C 15 42.328125 15.671875 43 16.5 43 L 31.5 43 C 32.328125 43 33 42.328125 33 41.5 Z "/>
<path style=" fill:#9C27B0;" d="M 30 6.5 C 30 7.328125 29.328125 8 28.5 8 L 19.5 8 C 18.671875 8 18 7.328125 18 6.5 L 18 5.5 C 18 4.671875 18.671875 4 19.5 4 L 28.5 4 C 29.328125 4 30 4.671875 30 5.5 Z "/>
<path style=" fill:#FAFAFA;" d="M 31 39.5 C 31 39.777344 30.777344 40 30.5 40 L 17.5 40 C 17.222656 40 17 39.777344 17 39.5 L 17 26 C 17 23.835938 17.488281 22.855469 18.230469 21.367188 C 18.898438 20.023438 19.648438 18.5 20.203125 16 L 27.796875 16 C 28.351563 18.5 29.105469 20.023438 29.773438 21.367188 C 30.511719 22.855469 31 23.835938 31 26 Z "/>
</g>
</svg>