<svg xmlns="http://www.w3.org/2000/svg" xmlns:xlink="http://www.w3.org/1999/xlink" viewBox="0 0 48 48" version="1.1" width="100" height="100" style="fill: rgb(0, 0, 0);">
<g id="surface1">
<path style=" fill:#FFB300;" d="M 41.5 37.152344 L 41.5 37.136719 C 41.5 37.136719 40.125 36.5625 39.4375 33.5625 C 38.75 30.5625 38.3125 20.070313 33.8125 19.195313 C 31.925781 21.015625 27.527344 22.015625 24 22 C 20.472656 22.015625 16.074219 21.015625 14.1875 19.195313 C 9.6875 20.070313 9.25 30.5625 8.5625 33.5625 C 7.875 36.5625 6.5 37.136719 6.5 37.136719 L 6.5 37.15625 C 6.207031 37.328125 6 37.632813 6 38 C 6 38.152344 6.027344 38.257813 6.070313 38.347656 C 6.136719 38.523438 6.253906 38.667969 6.402344 38.78125 L 6.402344 38.800781 C 6.402344 38.800781 11 42 24 42 C 37 42 41.597656 38.800781 41.597656 38.800781 L 41.597656 38.78125 C 41.746094 38.667969 41.863281 38.523438 41.929688 38.347656 C 41.976563 38.257813 42 38.152344 42 38 C 42 37.632813 41.792969 37.328125 41.5 37.152344 Z "/>
<path style=" fill:#FFB300;" d="M 11.082031 11.894531 C 11.082031 11.894531 13.539063 15.1875 14.1875 18.097656 C 14.542969 19.691406 16.632813 22 24 22 C 31.367188 22 33.246094 19.242188 32 20 C 31.8125 20.113281 35.160156 18.445313 37 14 Z "/>
<path style="fill:none;stroke-width:2;stroke-linecap:round;stroke-linejoin:miter;stroke:#795548;stroke-opacity:1;stroke-miterlimit:4;" d="M 14.1875 19.195313 C 16.074219 21.015625 20.472656 22.015625 24 22 C 27.527344 22.015625 31.925781 21.015625 33.8125 19.195313 "/>
<path style="fill:none;stroke-width:2;stroke-linecap:round;stroke-linejoin:miter;stroke:#795548;stroke-opacity:1;stroke-miterlimit:4;" d="M 16 39 C 16 34.992188 15.839844 31.949219 16.457031 27.976563 C 16.632813 26.847656 16.871094 25.730469 17.203125 24.636719 C 17.414063 23.933594 17.742188 22.203125 18.386719 21.777344 C 19.796875 20.839844 20.898438 25.65625 21.101563 26.484375 C 21.910156 29.746094 22.015625 32.628906 22 36 "/>
<path style=" fill:#FF9800;" d="M 37 13 C 39 17.585938 36.117188 20 30 20 C 23.882813 20 11 14.410156 11 11.414063 C 11 8.425781 15 6 24 6 C 30.117188 6 35.804688 10.261719 37 13 Z "/>
<path style=" fill:#FFFFFF;" d="M 32.90625 18.46875 C 32.238281 15.359375 29.230469 11 28 11 C 27.179688 11 26.230469 12.289063 25 12 C 23.628906 11.5625 22 9 21.054688 9 C 19.640625 9 17.3125 12.78125 16.042969 15.792969 C 19.738281 17.714844 24.71875 19.445313 28.355469 19.890625 C 28.941406 19.964844 31.726563 19.929688 32.90625 18.46875 Z "/>
<path style=" fill:#BDBDBD;" d="M 29 14 C 29 14.550781 28.550781 15 28 15 C 27.449219 15 27 14.550781 27 14 C 27 13.449219 27.449219 13 28 13 C 28.550781 13 29 13.449219 29 14 Z "/>
<path style=" fill:#BDBDBD;" d="M 30 17 C 30 17.550781 29.550781 18 29 18 C 28.449219 18 28 17.550781 28 17 C 28 16.449219 28.449219 16 29 16 C 29.550781 16 30 16.449219 30 17 Z "/>
</g>
</svg>