<svg xmlns="http://www.w3.org/2000/svg" xmlns:xlink="http://www.w3.org/1999/xlink" viewBox="0 0 48 48" version="1.1" width="100" height="100" style="fill: rgb(0, 0, 0);">
<g id="surface1">
<path style=" fill:#2196F3;" d="M 20.824219 33.617188 C 20.4375 34.011719 19.804688 34.011719 19.414063 33.617188 L 16.589844 30.769531 C 16.199219 30.378906 16.199219 29.742188 16.589844 29.351563 L 37.0625 7.292969 C 37.453125 6.898438 38.082031 6.902344 38.472656 7.292969 L 42.707031 11.5625 C 43.097656 11.957031 43.097656 12.59375 42.707031 12.984375 Z "/>
<path style=" fill:#2196F3;" d="M 6.382813 38.21875 C 6.382813 38.21875 8.429688 41 14.050781 41 C 22.738281 41 26.472656 32.289063 22.273438 27.039063 C 20.652344 25.078125 16.90625 22.863281 16.597656 23.234375 C 15.441406 24.660156 21.195313 32.019531 18.265625 34.640625 C 14.5625 37.953125 9.832031 39.015625 6.382813 38.21875 Z "/>
<path style=" fill:#3F51B5;" d="M 10.3125 39.871094 C 8.429688 39.871094 6.878906 39.066406 5.824219 37.554688 C 5.160156 36.636719 4.890625 35.695313 5.039063 34.773438 C 5.324219 32.960938 7.121094 31.683594 9.019531 30.335938 C 9.679688 29.867188 10.359375 29.382813 10.976563 28.875 C 12.148438 27.964844 12.707031 26.675781 13.195313 25.535156 C 13.734375 24.289063 14.289063 23 15.628906 23 C 16.085938 23 16.570313 23.167969 17.105469 23.511719 C 19.105469 24.894531 20.214844 27.125 20.261719 29.8125 C 20.3125 32.769531 19.015625 35.753906 17.03125 37.234375 C 14.785156 38.90625 12.335938 39.871094 10.3125 39.871094 Z "/>
</g>
</svg>