<svg xmlns="http://www.w3.org/2000/svg" xmlns:xlink="http://www.w3.org/1999/xlink" viewBox="0 0 48 48" version="1.1" width="100" height="100" style="fill: rgb(0, 0, 0);">
<g id="surface1">
<path style=" fill:#81D4FA;" d="M 24.074219 22.515625 C 21.585938 22.515625 19.722656 19.835938 19.722656 17.4375 C 19.722656 13.710938 23.191406 9.945313 23.339844 9.785156 L 24.074219 9 L 24.804688 9.785156 C 24.953125 9.941406 28.421875 13.710938 28.421875 17.4375 C 28.421875 19.835938 26.5625 22.515625 24.074219 22.515625 Z "/>
<path style=" fill:#81D4FA;" d="M 32.664063 23.914063 C 32.121094 23.914063 31.59375 23.773438 31.101563 23.5 C 28.992188 22.320313 28.621094 19.074219 29.695313 16.960938 C 31.417969 13.566406 33.339844 11.875 33.421875 11.804688 L 34.117188 11.199219 L 34.777344 11.847656 C 34.898438 11.964844 37.746094 14.820313 37.261719 18.960938 C 37.070313 20.574219 36.3125 21.6875 35.996094 22.09375 C 35.761719 22.394531 34.484375 23.914063 32.664063 23.914063 Z "/>
<path style=" fill:#81D4FA;" d="M 39.339844 28 C 38.191406 28 37.242188 27.53125 36.597656 26.644531 C 35.957031 25.761719 35.742188 24.582031 35.988281 23.320313 C 36.261719 21.925781 37.058594 20.699219 38.117188 20.046875 C 40.886719 18.335938 42.445313 17.253906 42.460938 17.242188 L 43.320313 16.640625 L 43.875 17.539063 C 43.972656 17.695313 46.246094 21.46875 44.042969 25.128906 C 43.210938 26.511719 42.066406 27.203125 41.609375 27.441406 C 41.355469 27.570313 40.441406 28 39.339844 28 Z "/>
<path style=" fill:#81D4FA;" d="M 15.480469 23.914063 C 13.664063 23.914063 12.386719 22.394531 12.148438 22.09375 C 11.832031 21.6875 11.078125 20.570313 10.886719 18.960938 C 10.398438 14.820313 13.25 11.964844 13.371094 11.847656 L 14.03125 11.199219 L 14.730469 11.804688 C 14.808594 11.875 16.730469 13.570313 18.453125 16.960938 C 19.527344 19.074219 19.15625 22.320313 17.050781 23.5 C 16.550781 23.773438 16.027344 23.914063 15.480469 23.914063 Z "/>
<path style=" fill:#81D4FA;" d="M 8.660156 28.226563 C 7.558594 28.226563 6.644531 27.796875 6.390625 27.664063 C 5.9375 27.433594 4.789063 26.738281 3.957031 25.355469 C 1.753906 21.695313 4.027344 17.921875 4.128906 17.765625 L 4.679688 16.867188 L 5.542969 17.46875 C 5.558594 17.480469 7.113281 18.5625 9.882813 20.269531 C 10.941406 20.925781 11.738281 22.152344 12.011719 23.546875 C 12.257813 24.808594 12.042969 25.988281 11.402344 26.871094 C 10.757813 27.757813 9.8125 28.226563 8.660156 28.226563 Z "/>
<path style=" fill:#B0BEC5;" d="M 39.933594 31.410156 C 39.808594 31.035156 39.59375 30.671875 39.28125 30.320313 L 37.890625 28 L 10.25 28 L 8.855469 30.320313 C 8.546875 30.671875 8.328125 31.035156 8.203125 31.410156 L 8.070313 31.632813 L 8.136719 31.632813 C 8.101563 31.800781 8.070313 31.964844 8.070313 32.132813 C 8.070313 35.371094 15.234375 38 24.070313 38 C 32.90625 38 40.070313 35.371094 40.070313 32.132813 C 40.070313 31.964844 40.039063 31.800781 40 31.632813 L 40.070313 31.632813 Z "/>
<path style=" fill:#1E88E5;" d="M 25.335938 21.050781 C 25.335938 21.757813 24.773438 22.589844 24.074219 22.589844 C 23.375 22.589844 22.808594 21.757813 22.808594 21.050781 C 22.808594 19.773438 24.074219 17.414063 24.074219 17.414063 C 24.074219 17.414063 25.335938 19.773438 25.335938 21.050781 Z "/>
<path style=" fill:#1E88E5;" d="M 33.605469 22.648438 C 33.316406 23.292969 32.375 23.71875 31.765625 23.378906 C 31.152344 23.035156 30.945313 21.960938 31.386719 21.410156 C 32.304688 20.265625 33.535156 18.734375 33.535156 18.734375 C 33.535156 18.734375 34.390625 20.875 33.605469 22.648438 Z "/>
<path style=" fill:#1E88E5;" d="M 39.765625 25.910156 C 39.242188 26.378906 38.210938 26.363281 37.796875 25.796875 C 37.382813 25.226563 37.636719 24.160156 38.265625 23.847656 C 39.570313 23.199219 41.320313 22.332031 41.320313 22.332031 C 41.320313 22.332031 41.210938 24.636719 39.765625 25.910156 Z "/>
<path style=" fill:#1E88E5;" d="M 14.699219 22.5625 C 14.984375 23.210938 15.925781 23.636719 16.539063 23.296875 C 17.148438 22.953125 17.355469 21.875 16.914063 21.324219 C 15.996094 20.183594 14.765625 18.652344 14.765625 18.652344 C 14.765625 18.652344 13.914063 20.792969 14.699219 22.5625 Z "/>
<path style=" fill:#1E88E5;" d="M 8.410156 26.066406 C 8.933594 26.53125 9.964844 26.519531 10.382813 25.949219 C 10.796875 25.378906 10.539063 24.3125 9.910156 24 C 8.609375 23.351563 6.859375 22.488281 6.859375 22.488281 C 6.859375 22.488281 6.96875 24.789063 8.410156 26.066406 Z "/>
<path style=" fill:#263238;" d="M 11.386719 30.433594 C 11.035156 30.433594 10.699219 30.617188 10.511719 30.941406 C 10.238281 31.421875 10.410156 32.03125 10.890625 32.304688 L 10.949219 32.335938 C 11.101563 32.421875 11.273438 32.464844 11.4375 32.464844 C 11.785156 32.464844 12.125 32.28125 12.308594 31.953125 C 12.578125 31.472656 12.40625 30.863281 11.925781 30.589844 C 11.910156 30.582031 11.898438 30.574219 11.882813 30.566406 C 11.882813 30.566406 11.878906 30.566406 11.878906 30.5625 C 11.722656 30.476563 11.554688 30.433594 11.386719 30.433594 Z "/>
<path style=" fill:#263238;" d="M 15.398438 31.980469 C 14.953125 31.980469 14.550781 32.277344 14.429688 32.730469 C 14.289063 33.261719 14.609375 33.808594 15.144531 33.949219 L 15.203125 33.964844 C 15.289063 33.984375 15.371094 33.996094 15.457031 33.996094 C 15.902344 33.996094 16.304688 33.699219 16.421875 33.246094 C 16.5625 32.714844 16.242188 32.167969 15.707031 32.027344 C 15.703125 32.027344 15.703125 32.027344 15.703125 32.027344 C 15.683594 32.023438 15.667969 32.015625 15.652344 32.011719 C 15.566406 31.992188 15.480469 31.980469 15.398438 31.980469 Z "/>
<path style=" fill:#263238;" d="M 19.519531 32.742188 C 19.019531 32.742188 18.585938 33.117188 18.527344 33.625 C 18.464844 34.175781 18.855469 34.671875 19.402344 34.734375 L 19.460938 34.742188 C 19.5 34.746094 19.539063 34.746094 19.578125 34.746094 C 20.078125 34.746094 20.511719 34.371094 20.570313 33.863281 C 20.632813 33.316406 20.238281 32.820313 19.691406 32.753906 C 19.6875 32.753906 19.683594 32.753906 19.679688 32.753906 C 19.675781 32.753906 19.675781 32.753906 19.671875 32.753906 C 19.671875 32.753906 19.671875 32.753906 19.667969 32.753906 C 19.664063 32.753906 19.664063 32.75 19.660156 32.75 C 19.652344 32.75 19.644531 32.75 19.636719 32.746094 C 19.597656 32.742188 19.558594 32.742188 19.519531 32.742188 Z "/>
<path style=" fill:#263238;" d="M 23.675781 33 C 23.125 33 22.679688 33.441406 22.675781 33.988281 C 22.667969 34.542969 23.113281 34.992188 23.664063 35 L 23.722656 35 C 23.722656 35 23.726563 35 23.730469 35 C 24.277344 35 24.726563 34.558594 24.730469 34.007813 C 24.734375 33.457031 24.289063 33.003906 23.738281 33 C 23.730469 33 23.71875 33 23.710938 33 C 23.699219 33 23.691406 33 23.679688 33 C 23.679688 33 23.675781 33 23.675781 33 Z "/>
<path style=" fill:#263238;" d="M 27.886719 32.820313 C 27.851563 32.820313 27.820313 32.820313 27.785156 32.824219 C 27.785156 32.824219 27.785156 32.824219 27.78125 32.824219 C 27.78125 32.824219 27.777344 32.824219 27.773438 32.824219 C 27.769531 32.824219 27.765625 32.824219 27.761719 32.828125 C 27.761719 32.828125 27.757813 32.828125 27.757813 32.828125 C 27.746094 32.828125 27.738281 32.828125 27.730469 32.828125 C 27.183594 32.882813 26.777344 33.371094 26.832031 33.921875 C 26.882813 34.4375 27.316406 34.824219 27.824219 34.824219 C 27.855469 34.824219 27.890625 34.824219 27.921875 34.820313 L 27.980469 34.816406 C 28.53125 34.761719 28.933594 34.273438 28.878906 33.722656 C 28.828125 33.207031 28.394531 32.820313 27.886719 32.820313 Z "/>
<path style=" fill:#263238;" d="M 32.015625 32.359375 C 31.941406 32.359375 31.867188 32.367188 31.789063 32.382813 C 31.78125 32.382813 31.777344 32.386719 31.773438 32.386719 C 31.757813 32.390625 31.746094 32.394531 31.734375 32.394531 C 31.195313 32.519531 30.859375 33.054688 30.984375 33.59375 C 31.089844 34.058594 31.503906 34.371094 31.957031 34.371094 C 32.03125 34.371094 32.105469 34.363281 32.183594 34.34375 L 32.238281 34.332031 C 32.890625 34.183594 32.996094 33.167969 32.988281 33.132813 C 32.882813 32.671875 32.46875 32.359375 32.015625 32.359375 Z "/>
<path style=" fill:#263238;" d="M 36.058594 30.796875 C 35.914063 30.796875 35.765625 30.828125 35.625 30.894531 C 35.609375 30.902344 35.59375 30.910156 35.574219 30.917969 C 35.574219 30.921875 35.574219 30.921875 35.574219 30.921875 C 35.078125 31.160156 34.867188 31.757813 35.105469 32.253906 C 35.273438 32.613281 35.632813 32.824219 36.003906 32.824219 C 36.148438 32.824219 36.296875 32.792969 36.4375 32.722656 L 36.496094 32.695313 C 36.992188 32.457031 37.199219 31.859375 36.960938 31.363281 C 36.789063 31.007813 36.429688 30.796875 36.058594 30.796875 Z "/>
<path style=" fill:#546E7A;" d="M 39.070313 27.5 C 39.070313 24.460938 32.351563 22 24.070313 22 C 15.785156 22 9.070313 24.460938 9.070313 27.5 C 9.070313 30.539063 15.785156 33 24.070313 33 C 32.351563 33 39.070313 30.539063 39.070313 27.5 Z "/>
</g>
</svg>