<svg xmlns="http://www.w3.org/2000/svg" xmlns:xlink="http://www.w3.org/1999/xlink" viewBox="0 0 48 48" version="1.1" width="100" height="100" style="fill: rgb(0, 0, 0);">
<g id="surface1">
<path style=" fill:#455A64;" d="M 32 17 L 13 17 L 13 13.847656 C 13 13.378906 13.378906 13 13.847656 13 L 31.152344 13 C 31.621094 13 32 13.378906 32 13.847656 Z "/>
<path style=" fill:#90CAF9;" d="M 32 17 L 13 17 C 13 17 7 24.128906 7 33 C 7 41.871094 12.183594 42 17 42 C 19.078125 42 25.039063 42 28 42 C 32.816406 42 38 41.871094 38 33 C 38 24.128906 32 17 32 17 Z "/>
<path style=" fill:#90CAF9;" d="M 31 9 C 31 9 22.191406 6 11 6 C 12.25 8.601563 14 13 14 13 L 31 13 Z "/>
<path style=" fill:#795548;" d="M 10.296875 26 C 9.546875 28.089844 9 30.476563 9 33 C 9 39.675781 11.890625 40 17 40 L 28 40 C 33.109375 40 36 39.675781 36 33 C 36 30.476563 35.453125 28.089844 34.703125 26 Z "/>
<path style=" fill:#FFFFFF;" d="M 17 17 C 17 17 12 23.0625 12 34 C 14.4375 23.125 20 17 20 17 Z "/>
<path style=" fill:#FFFFFF;" d="M 17 13 L 20 13 C 19.089844 11.074219 17.863281 9.519531 16.753906 8.363281 C 16.320313 8.320313 15.882813 8.277344 15.4375 8.238281 C 16.207031 9.621094 17 11.425781 17 13 Z "/>
<path style=" fill:#455A64;" d="M 43 28 L 40 28 C 40 18.722656 37.574219 14.546875 36.09375 13.027344 L 32.058594 17.058594 L 29.9375 14.9375 L 36 9 C 36 9 43 12.4375 43 28 Z "/>
</g>
</svg>