<svg xmlns="http://www.w3.org/2000/svg" xmlns:xlink="http://www.w3.org/1999/xlink" viewBox="0 0 48 48" version="1.1" width="100" height="100" style="fill: rgb(0, 0, 0);">
<g id="surface1">
<path style=" fill:#546E7A;" d="M 26 5.5 C 26 6.328125 25.328125 7 24.5 7 L 23.5 7 C 22.671875 7 22 6.328125 22 5.5 L 22 4.5 C 22 3.671875 22.671875 3 23.5 3 L 24.5 3 C 25.328125 3 26 3.671875 26 4.5 Z "/>
<path style=" fill:#BBDEFB;" d="M 32 26.5 C 32 27.328125 31.328125 28 30.5 28 L 17.5 28 C 16.671875 28 16 27.328125 16 26.5 L 16 17.5 C 16 16.671875 16.671875 16 17.5 16 L 30.5 16 C 31.328125 16 32 16.671875 32 17.5 Z "/>
<path style=" fill:#64B5F6;" d="M 23 16 L 25 16 L 25 27 L 23 27 Z "/>
<path style=" fill:#5D4037;" d="M 32 24.5 C 32 23.671875 31.328125 23 30.5 23 L 17.5 23 C 16.671875 23 16 23.671875 16 24.5 L 16 36.5 C 16 37.328125 16.671875 38 17.5 38 L 30.5 38 C 31.328125 38 32 37.328125 32 36.5 Z "/>
<path style=" fill:#4E342E;" d="M 25 29.5 C 25 30.328125 24.328125 31 23.5 31 C 22.671875 31 22 30.328125 22 29.5 C 22 28.671875 22.671875 28 23.5 28 C 24.328125 28 25 28.671875 25 29.5 Z "/>
<path style=" fill:#4E342E;" d="M 31 22.5 C 31 23.328125 30.328125 24 29.5 24 C 28.671875 24 28 23.328125 28 22.5 C 28 21.671875 28.671875 21 29.5 21 C 30.328125 21 31 21.671875 31 22.5 Z "/>
<path style=" fill:#4E342E;" d="M 21 32.5 C 21 33.328125 20.328125 34 19.5 34 C 18.671875 34 18 33.328125 18 32.5 C 18 31.671875 18.671875 31 19.5 31 C 20.328125 31 21 31.671875 21 32.5 Z "/>
<path style=" fill:#4E342E;" d="M 29 34.5 C 29 35.328125 28.328125 36 27.5 36 C 26.671875 36 26 35.328125 26 34.5 C 26 33.671875 26.671875 33 27.5 33 C 28.328125 33 29 33.671875 29 34.5 Z "/>
<path style=" fill:#4E342E;" d="M 25 33.5 C 25 34.328125 24.328125 35 23.5 35 C 22.671875 35 22 34.328125 22 33.5 C 22 32.671875 22.671875 32 23.5 32 C 24.328125 32 25 32.671875 25 33.5 Z "/>
<path style=" fill:#4E342E;" d="M 30 29.5 C 30 30.328125 29.328125 31 28.5 31 C 27.671875 31 27 30.328125 27 29.5 C 27 28.671875 27.671875 28 28.5 28 C 29.328125 28 30 28.671875 30 29.5 Z "/>
<path style=" fill:#4E342E;" d="M 19 33.5 C 19 34.328125 18.328125 35 17.5 35 C 16.671875 35 16 34.328125 16 33.5 C 16 32.671875 16.671875 32 17.5 32 C 18.328125 32 19 32.671875 19 33.5 Z "/>
<path style=" fill:#4E342E;" d="M 20 21.5 C 20 22.328125 19.328125 23 18.5 23 C 17.671875 23 17 22.328125 17 21.5 C 17 20.671875 17.671875 20 18.5 20 C 19.328125 20 20 20.671875 20 21.5 Z "/>
<path style=" fill:#4E342E;" d="M 21 24.5 C 21 25.328125 20.328125 26 19.5 26 C 18.671875 26 18 25.328125 18 24.5 C 18 23.671875 18.671875 23 19.5 23 C 20.328125 23 21 23.671875 21 24.5 Z "/>
<path style=" fill:#FF5722;" d="M 20.5 21 C 20.304688 21 20.113281 21.039063 19.941406 21.109375 C 19.976563 21.234375 20 21.363281 20 21.5 C 20 22.132813 19.609375 22.667969 19.058594 22.890625 C 19.230469 23.527344 19.808594 24 20.5 24 C 21.328125 24 22 23.328125 22 22.5 C 22 21.671875 21.328125 21 20.5 21 Z "/>
<path style=" fill:#FF5722;" d="M 26 35.5 C 26 36.328125 25.328125 37 24.5 37 C 23.671875 37 23 36.328125 23 35.5 C 23 34.671875 23.671875 34 24.5 34 C 25.328125 34 26 34.671875 26 35.5 Z "/>
<path style=" fill:#FF5722;" d="M 31 26.5 C 31 27.328125 30.328125 28 29.5 28 C 28.671875 28 28 27.328125 28 26.5 C 28 25.671875 28.671875 25 29.5 25 C 30.328125 25 31 25.671875 31 26.5 Z "/>
<path style=" fill:#FF5722;" d="M 22.082031 36.582031 C 22.082031 37.410156 21.410156 38.082031 20.582031 38.082031 C 19.753906 38.082031 19.082031 37.410156 19.082031 36.582031 C 19.082031 35.753906 19.753906 35.082031 20.582031 35.082031 C 21.410156 35.082031 22.082031 35.753906 22.082031 36.582031 Z "/>
<path style=" fill:#FF5722;" d="M 21 27.5 C 21 28.328125 20.328125 29 19.5 29 C 18.671875 29 18 28.328125 18 27.5 C 18 26.671875 18.671875 26 19.5 26 C 20.328125 26 21 26.671875 21 27.5 Z "/>
<path style=" fill:#F0F4C3;" d="M 18.5 23 C 17.867188 23 17.332031 22.609375 17.109375 22.058594 C 16.472656 22.230469 16 22.808594 16 23.5 C 16 24.328125 16.671875 25 17.5 25 C 18.328125 25 19 24.328125 19 23.5 C 19 23.304688 18.960938 23.113281 18.890625 22.941406 C 18.765625 22.976563 18.636719 23 18.5 23 Z "/>
<path style=" fill:#F0F4C3;" d="M 27 27.5 C 27 28.328125 26.328125 29 25.5 29 C 24.671875 29 24 28.328125 24 27.5 C 24 26.671875 24.671875 26 25.5 26 C 26.328125 26 27 26.671875 27 27.5 Z "/>
<path style=" fill:#F0F4C3;" d="M 30 36.5 C 30 37.328125 29.328125 38 28.5 38 C 27.671875 38 27 37.328125 27 36.5 C 27 35.671875 27.671875 35 28.5 35 C 29.328125 35 30 35.671875 30 36.5 Z "/>
<path style=" fill:#795548;" d="M 19 29.5 C 19 30.328125 18.328125 31 17.5 31 C 16.671875 31 16 30.328125 16 29.5 C 16 28.671875 16.671875 28 17.5 28 C 18.328125 28 19 28.671875 19 29.5 Z "/>
<path style=" fill:#795548;" d="M 23 26.5 C 23 27.328125 22.328125 28 21.5 28 C 20.671875 28 20 27.328125 20 26.5 C 20 25.671875 20.671875 25 21.5 25 C 22.328125 25 23 25.671875 23 26.5 Z "/>
<path style=" fill:#795548;" d="M 28 31.5 C 28 32.328125 27.328125 33 26.5 33 C 25.671875 33 25 32.328125 25 31.5 C 25 30.671875 25.671875 30 26.5 30 C 27.328125 30 28 30.671875 28 31.5 Z "/>
<path style=" fill:#795548;" d="M 31 33.5 C 31 34.328125 30.328125 35 29.5 35 C 28.671875 35 28 34.328125 28 33.5 C 28 32.671875 28.671875 32 29.5 32 C 30.328125 32 31 32.671875 31 33.5 Z "/>
<path style=" fill:#795548;" d="M 28 23.5 C 28 24.328125 27.328125 25 26.5 25 C 25.671875 25 25 24.328125 25 23.5 C 25 22.671875 25.671875 22 26.5 22 C 27.328125 22 28 22.671875 28 23.5 Z "/>
<path style=" fill:#795548;" d="M 23 32 C 23 32.828125 22.328125 33.5 21.5 33.5 C 20.671875 33.5 20 32.828125 20 32 C 20 31.171875 20.671875 30.5 21.5 30.5 C 22.328125 30.5 23 31.171875 23 32 Z "/>
<path style=" fill:#558B2F;" d="M 25 23.5 C 25 24.328125 24.328125 25 23.5 25 C 22.671875 25 22 24.328125 22 23.5 C 22 22.671875 22.671875 22 23.5 22 C 24.328125 22 25 22.671875 25 23.5 Z "/>
<path style=" fill:#558B2F;" d="M 20 34.339844 C 20 35.167969 19.328125 35.839844 18.5 35.839844 C 17.671875 35.839844 17 35.167969 17 34.339844 C 17 33.511719 17.671875 32.839844 18.5 32.839844 C 19.328125 32.839844 20 33.511719 20 34.339844 Z "/>
<path style=" fill:#558B2F;" d="M 32 30.5 C 32 31.328125 31.328125 32 30.5 32 C 29.671875 32 29 31.328125 29 30.5 C 29 29.671875 29.671875 29 30.5 29 C 31.328125 29 32 29.671875 32 30.5 Z "/>
<path style=" fill:#558B2F;" d="M 32 23.5 C 32 24.328125 31.328125 25 30.5 25 C 29.671875 25 29 24.328125 29 23.5 C 29 22.671875 29.671875 22 30.5 22 C 31.328125 22 32 22.671875 32 23.5 Z "/>
<path style=" fill:#90A4AE;" d="M 32 43.5 C 32 44.328125 31.328125 45 30.5 45 L 17.5 45 C 16.671875 45 16 44.328125 16 43.5 L 16 39.5 C 16 38.671875 16.671875 38 17.5 38 L 30.5 38 C 31.328125 38 32 38.671875 32 39.5 Z "/>
<path style=" fill:#90A4AE;" d="M 32 12.445313 C 32 14.40625 30.40625 16 28.445313 16 L 19.554688 16 C 17.59375 16 16 14.40625 16 12.445313 C 16 10.480469 17.925781 7 24 7 C 30.074219 7 32 10.480469 32 12.445313 Z "/>
</g>
</svg>