<svg xmlns="http://www.w3.org/2000/svg" xmlns:xlink="http://www.w3.org/1999/xlink" viewBox="0 0 48 48" version="1.1" width="100" height="100" style="fill: rgb(0, 0, 0);">
<g id="surface1">
<path style=" fill:#FFB300;" d="M 24 20 C 24 24.417969 20.417969 28 16 28 C 11.582031 28 8 24.417969 8 20 C 8 15.582031 11.582031 12 16 12 C 20.417969 12 24 15.582031 24 20 Z "/>
<path style=" fill:#FFB300;" d="M 25 34 C 25 38.417969 21.417969 42 17 42 C 12.582031 42 9 38.417969 9 34 C 9 29.582031 12.582031 26 17 26 C 21.417969 26 25 29.582031 25 34 Z "/>
<path style=" fill:#90CAF9;" d="M 38 25.871094 C 38 19.703125 34.222656 21.128906 34.222656 7.847656 C 34.222656 7.847656 26.664063 7.847656 24.777344 7.847656 C 24.777344 21.128906 21 19.703125 21 25.871094 L 21 40.578125 C 21 41.363281 21.636719 42 22.417969 42 L 36.585938 42 C 37.363281 42 38 41.363281 38 40.578125 Z "/>
<path style=" fill:#9C27B0;" d="M 35 7.5 C 35 8.328125 34.382813 9 33.625 9 L 25.375 9 C 24.617188 9 24 8.328125 24 7.5 L 24 6.5 C 24 5.671875 24.617188 5 25.375 5 L 33.625 5 C 34.382813 5 35 5.671875 35 6.5 Z "/>
<path style=" fill:#FAFAFA;" d="M 36.109375 38.679688 C 36.109375 38.941406 35.898438 39.15625 35.636719 39.15625 L 23.359375 39.15625 C 23.101563 39.15625 22.886719 38.941406 22.886719 38.679688 L 22.886719 25.871094 C 22.886719 23.820313 23.351563 22.886719 24.050781 21.476563 C 24.679688 20.203125 25.390625 18.757813 25.914063 16.382813 L 33.085938 16.382813 C 33.609375 18.757813 34.320313 20.203125 34.949219 21.476563 C 35.648438 22.886719 36.109375 23.820313 36.109375 25.871094 Z "/>
<path style=" fill:#E91E63;" d="M 8 26 L 10 42 L 38 42 L 40 26 Z M 15 39 L 13 39 L 13 35 L 15 35 Z M 15 33 L 13 33 L 13 29 L 15 29 Z M 20 39 L 18 39 L 18 35 L 20 35 Z M 20 33 L 18 33 L 18 29 L 20 29 Z M 25 39 L 23 39 L 23 35 L 25 35 Z M 25 33 L 23 33 L 23 29 L 25 29 Z M 30 39 L 28 39 L 28 35 L 30 35 Z M 30 33 L 28 33 L 28 29 L 30 29 Z M 35 39 L 33 39 L 33 35 L 35 35 Z M 35 33 L 33 33 L 33 29 L 35 29 Z "/>
<path style=" fill:#AD1457;" d="M 41.492188 24 C 41.492188 23.449219 41.046875 23 40.492188 23 L 7.507813 23 C 6.953125 23 6.507813 23.449219 6.507813 24 L 6.507813 26 C 6.507813 26.554688 6.953125 27 7.507813 27 L 40.492188 27 C 41.046875 27 41.492188 26.554688 41.492188 26 Z "/>
<path style=" fill:#4CAF50;" d="M 16 15.53125 C 16 15.53125 15 9 7 10 C 9 17 16 15.53125 16 15.53125 Z "/>
</g>
</svg>