<svg xmlns="http://www.w3.org/2000/svg" xmlns:xlink="http://www.w3.org/1999/xlink" viewBox="0 0 48 48" version="1.1" width="100" height="100" style="fill: rgb(0, 0, 0);">
<g id="surface1">
<path style=" fill:#78909C;" d="M 29.957031 17.015625 L 18.042969 17.015625 L 18.042969 6.015625 L 29.957031 6.015625 Z "/>
<path style=" fill:#CFD8DC;" d="M 44 24.015625 L 4 24.015625 L 18 16.015625 L 30 16.015625 Z "/>
<path style=" fill:#90A4AE;" d="M 3 24.015625 L 45 24.015625 L 45 29.015625 L 3 29.015625 Z "/>
<path style=" fill:#BCAAA4;" d="M 31.46875 42 L 31.152344 41.542969 C 31.03125 41.355469 30 39.644531 30 38.015625 C 30 37.035156 30.375 36.429688 30.648438 35.988281 C 30.867188 35.636719 31 35.425781 31 35.015625 C 31 34.117188 30.386719 32.925781 30.148438 32.542969 L 29.867188 32.085938 L 31.5625 31.03125 L 31.847656 31.488281 C 31.964844 31.675781 33 33.386719 33 35.015625 C 33 35.996094 32.621094 36.601563 32.347656 37.042969 C 32.132813 37.394531 32 37.605469 32 38.015625 C 32 38.914063 32.613281 40.105469 32.851563 40.488281 L 33.164063 40.949219 Z "/>
<path style=" fill:#BCAAA4;" d="M 26.453125 42 L 26.136719 41.542969 C 26.019531 41.355469 24.984375 39.644531 24.984375 38.015625 C 24.984375 37.035156 25.359375 36.429688 25.636719 35.988281 C 25.851563 35.636719 25.984375 35.425781 25.984375 35.015625 C 25.984375 34.117188 25.371094 32.925781 25.132813 32.542969 L 24.851563 32.085938 L 26.546875 31.03125 L 26.835938 31.488281 C 26.949219 31.675781 27.984375 33.386719 27.984375 35.015625 C 27.984375 35.996094 27.609375 36.601563 27.335938 37.042969 C 27.117188 37.394531 26.984375 37.605469 26.984375 38.015625 C 26.984375 38.914063 27.597656 40.105469 27.835938 40.488281 L 28.148438 40.945313 Z "/>
<path style=" fill:#BCAAA4;" d="M 21.46875 42 L 21.152344 41.542969 C 21.03125 41.355469 20 39.644531 20 38.015625 C 20 37.035156 20.375 36.429688 20.648438 35.988281 C 20.867188 35.636719 21 35.425781 21 35.015625 C 21 34.117188 20.386719 32.925781 20.148438 32.542969 L 19.867188 32.085938 L 21.5625 31.03125 L 21.847656 31.488281 C 21.964844 31.675781 23 33.386719 23 35.015625 C 23 35.996094 22.621094 36.601563 22.347656 37.042969 C 22.132813 37.394531 22 37.605469 22 38.015625 C 22 38.914063 22.613281 40.105469 22.851563 40.488281 L 23.164063 40.949219 Z "/>
<path style=" fill:#BCAAA4;" d="M 16.484375 42 L 16.164063 41.542969 C 16.050781 41.355469 15.015625 39.644531 15.015625 38.015625 C 15.015625 37.035156 15.390625 36.429688 15.664063 35.988281 C 15.882813 35.636719 16.015625 35.425781 16.015625 35.015625 C 16.015625 34.117188 15.402344 32.925781 15.164063 32.542969 L 14.882813 32.085938 L 16.578125 31.03125 L 16.863281 31.488281 C 16.980469 31.675781 18.015625 33.386719 18.015625 35.015625 C 18.015625 35.996094 17.640625 36.601563 17.363281 37.042969 C 17.148438 37.394531 17.015625 37.605469 17.015625 38.015625 C 17.015625 38.914063 17.628906 40.105469 17.867188 40.488281 L 18.179688 40.945313 Z "/>
</g>
</svg>