<svg xmlns="http://www.w3.org/2000/svg" xmlns:xlink="http://www.w3.org/1999/xlink" viewBox="0 0 48 48" version="1.1" width="100" height="100" style="fill: rgb(0, 0, 0);">
<g id="surface1">
<path style="fill:none;stroke-width:2;stroke-linecap:butt;stroke-linejoin:miter;stroke:#1976D2;stroke-opacity:1;stroke-miterlimit:10;" d="M 34 33 L 30 33 C 27.25 33 25 30.75 25 28 L 25 21 C 25 18.25 27.25 16 30 16 L 34 16 C 36.75 16 39 18.25 39 21 L 39 28 C 39 30.75 36.75 33 34 33 Z "/>
<path style=" fill:#90CAF9;" d="M 7 12 L 33 12 L 33 39 C 33 40.65625 31.65625 42 30 42 L 12 42 C 10.34375 42 9 40.65625 9 39 L 9 17 Z "/>
<path style=" fill:#42A5F5;" d="M 20 12 L 22 12 L 22 30 L 20 30 Z "/>
<path style=" fill:#42A5F5;" d="M 31 30 L 11 30 C 11 28.894531 11.894531 28 13 28 L 29 28 C 30.105469 28 31 28.894531 31 30 Z "/>
<path style=" fill:#3F51B5;" d="M 17 4 L 25 4 L 25 6 L 17 6 Z "/>
<path style=" fill:#3F51B5;" d="M 20 6 L 22 6 L 22 12 L 20 12 Z "/>
<path style=" fill:#1976D2;" d="M 33 12 L 9 12 C 9 12 9.0625 8 13 8 L 29 8 C 32.9375 8 33 12 33 12 Z "/>
<path style=" fill:#1976D2;" d="M 31 11 L 11 11 L 11 10 C 11 8.894531 11.894531 8 13 8 L 29 8 C 30.105469 8 31 8.894531 31 10 Z "/>
<path style=" fill:#E64A19;" d="M 11 30 L 11 39 C 11 39.550781 11.449219 40 12 40 L 30 40 C 30.550781 40 31 39.550781 31 39 L 31 30 Z "/>
<path style=" fill:#BF360C;" d="M 16 36 C 16 36.550781 15.550781 37 15 37 C 14.449219 37 14 36.550781 14 36 C 14 35.449219 14.449219 35 15 35 C 15.550781 35 16 35.449219 16 36 Z "/>
<path style=" fill:#BF360C;" d="M 18 33 C 18 33.550781 17.550781 34 17 34 C 16.449219 34 16 33.550781 16 33 C 16 32.449219 16.449219 32 17 32 C 17.550781 32 18 32.449219 18 33 Z "/>
<path style=" fill:#BF360C;" d="M 22 37 C 22 37.550781 21.550781 38 21 38 C 20.449219 38 20 37.550781 20 37 C 20 36.449219 20.449219 36 21 36 C 21.550781 36 22 36.449219 22 37 Z "/>
<path style=" fill:#BF360C;" d="M 28 33 C 28 33.550781 27.550781 34 27 34 C 26.449219 34 26 33.550781 26 33 C 26 32.449219 26.449219 32 27 32 C 27.550781 32 28 32.449219 28 33 Z "/>
</g>
</svg>