<svg xmlns="http://www.w3.org/2000/svg" xmlns:xlink="http://www.w3.org/1999/xlink" viewBox="0 0 48 48" version="1.1" width="100" height="100" style="fill: rgb(0, 0, 0);">
<g id="surface1">
<path style=" fill:#3F51B5;" d="M 41.773438 7.355469 L 41.582031 7.265625 C 41.5 7.222656 41.4375 7.171875 41.347656 7.132813 L 39.578125 6.351563 C 37.609375 5.554688 36.417969 6.238281 35.515625 7.144531 L 26.875 17.449219 L 27.394531 18.289063 L 32.0625 21.453125 L 42.234375 11.390625 C 43.140625 10.480469 43.53125 8.234375 41.773438 7.355469 Z "/>
<path style=" fill:#1E88E5;" d="M 31.105469 20.316406 L 29.171875 29.148438 C 28.964844 30.015625 27.507813 30.410156 25.914063 30.035156 C 24.320313 29.65625 23.195313 28.648438 23.398438 27.78125 L 23.609375 26.339844 L 27.714844 18.1875 Z "/>
<path style=" fill:#42A5F5;" d="M 23.609375 26.339844 L 6.410156 36.53125 C 5.015625 37.386719 4.582031 39.207031 5.441406 40.59375 C 6.300781 41.984375 8.128906 42.414063 9.519531 41.558594 L 28.828125 29.703125 Z "/>
</g>
</svg>