<svg xmlns="http://www.w3.org/2000/svg" xmlns:xlink="http://www.w3.org/1999/xlink" viewBox="0 0 48 48" version="1.1" width="100" height="100" style="fill: rgb(0, 0, 0);">
<g id="surface1">
<path style=" fill:#90A4AE;" d="M 19 22.679688 C 19 22.679688 14.351563 26.402344 11.871094 22.679688 C 9.390625 18.960938 9.078125 14 9.078125 14 L 19 14 Z "/>
<path style=" fill:#455A64;" d="M 32 35 L 39 35 L 39 37 L 32 37 Z "/>
<path style=" fill:#455A64;" d="M 34.992188 16 C 34.992188 16 35 23 32 30 C 31.621094 30.878906 31.59375 35.535156 31.46875 36 L 34.464844 36 C 38.074219 27.742188 39 13 39 13 C 39 11.894531 38.105469 11 37 11 L 27 11 C 25.894531 11 25 13.894531 25 15 C 25 15 33.023438 15 34.085938 15 C 35.148438 15 34.992188 16 34.992188 16 Z "/>
<path style=" fill:#455A64;" d="M 22.5 6 C 18.5 6 16 11 16 11 L 29 11 C 29 11 26.5 6 22.5 6 Z "/>
<path style=" fill:#455A64;" d="M 35 40 C 35 40 35 38 33 38 L 13 38 C 13 38 11 38 11 40 L 11 42 L 35 42 Z "/>
<path style=" fill:#CFD8DC;" d="M 35 36 C 35 36 35 38 33 38 L 13 38 C 11 38 11 36 11 36 C 11 19 16 11 16 11 C 19 11 26 11 29 11 C 29 11 35 20 35 36 Z "/>
<path style=" fill:#FF1744;" d="M 25 34 C 25 35.105469 24.105469 36 23 36 C 21.894531 36 21 35.105469 21 34 C 21 32.894531 21.894531 32 23 32 C 24.105469 32 25 32.894531 25 34 Z "/>
</g>
</svg>