<svg xmlns="http://www.w3.org/2000/svg" xmlns:xlink="http://www.w3.org/1999/xlink" viewBox="0 0 48 48" version="1.1" width="100" height="100" style="fill: rgb(0, 0, 0);">
<g id="surface1">
<path style=" fill:#90CAF9;" d="M 30.535156 30.28125 C 29.511719 30.28125 28.6875 30.03125 28.054688 29.539063 C 27.277344 28.933594 27 28.085938 27 27.5 L 30 27.5 C 30 27.328125 29.96875 27.222656 29.898438 27.175781 C 29.902344 27.179688 30.394531 27.480469 32.136719 27.046875 C 35.148438 26.289063 38 19.699219 38 17.5 C 38 16.035156 37.746094 15.476563 37.53125 15.265625 C 37.351563 15.085938 37.054688 14.992188 36.511719 15.003906 C 34.023438 15.003906 31.359375 16.730469 31.332031 16.75 L 29.667969 14.253906 C 29.804688 14.160156 33.085938 12.003906 36.5 12.003906 C 36.519531 12.003906 36.535156 12.003906 36.554688 12.003906 C 37.84375 12.003906 38.886719 12.382813 39.644531 13.132813 C 40.859375 14.339844 41 16.203125 41 17.5 C 41 20.507813 37.757813 28.730469 32.863281 29.953125 C 31.992188 30.171875 31.21875 30.28125 30.535156 30.28125 Z "/>
<path style=" fill:#90CAF9;" d="M 33 23 C 31.457031 11.929688 33 9.003906 33 8.003906 C 33 8.003906 32 7 25 8 C 18.070313 8.988281 15 5 11 5 C 7 5 7 7.003906 7 7.003906 C 10 10.003906 11.691406 11.167969 10 23 C 8 36.996094 15 42 15 42 C 16.078125 43.15625 17 43 17 43 L 26 43 C 26 43 26.78125 43.15625 28 42 C 28 42 34.957031 37.039063 33 23 Z "/>
<path style=" fill:#FAFAFA;" d="M 15.75 40.003906 L 27.253906 40.003906 C 28.574219 38.734375 32.511719 33.964844 31.019531 23.277344 C 30.675781 20.820313 30.488281 18.761719 30.394531 17 L 12.628906 17 C 12.546875 18.734375 12.335938 20.789063 11.980469 23.285156 C 10.460938 33.921875 14.402344 38.710938 15.75 40.003906 Z "/>
</g>
</svg>