<svg xmlns="http://www.w3.org/2000/svg" xmlns:xlink="http://www.w3.org/1999/xlink" viewBox="0 0 48 48" version="1.1" width="100" height="100" style="fill: rgb(0, 0, 0);">
<g id="surface1">
<path style=" fill:#90CAF9;" d="M 42 16.5 C 42 11.800781 38.199219 8 33.5 8 C 32.398438 8 31.398438 8.199219 30.398438 8.601563 C 28.898438 6.398438 26.398438 5 23.5 5 C 20.800781 5 18.300781 6.300781 16.800781 8.300781 C 16 8.101563 15.300781 8 14.5 8 C 9.800781 8 6 11.800781 6 16.5 C 6 20.300781 8.5 23.601563 12 24.601563 L 12 43 L 36 43 L 36 24.601563 C 39.5 23.601563 42 20.300781 42 16.5 Z "/>
<path style=" fill:#1E88E5;" d="M 18 39 C 17.398438 39 17 38.5 17 38 L 17 29 C 17 28.5 17.398438 28 18 28 C 18.5 28 19 28.398438 19 29 L 19 38 C 19 38.5 18.601563 39 18 39 Z M 25 38 L 25 29 C 25 28.5 24.601563 28 24 28 C 23.5 28 23 28.398438 23 29 L 23 38 C 23 38.5 23.398438 39 24 39 C 24.601563 39 25 38.5 25 38 Z M 31 38 L 31 29 C 31 28.5 30.601563 28 30 28 C 29.5 28 29 28.398438 29 29 L 29 38 C 29 38.5 29.398438 39 30 39 C 30.601563 39 31 38.5 31 38 Z "/>
<path style=" fill:#42A5F5;" d="M 12 37 L 36 37 L 36 43 L 12 43 Z "/>
</g>
</svg>